<svg id="Layer_1" data-name="Layer 1" xmlns="http://www.w3.org/2000/svg" viewBox="0 0 1000 1000"><defs><style>.cls-1{fill:#66eded;}.cls-2{fill:#fff;}.cls-3{fill:#1f231e;}.cls-4{fill:#cd825a;}.cls-5{fill:#603813;}.cls-6{fill:#ecc0a4;}.cls-7{fill:#754c24;}.cls-8{fill:#0f0e23;}.cls-9{fill:aqua;}</style></defs><title>doug</title><polygon class="cls-1" points="894.49 287.51 894.49 316.33 894.49 345.14 894.49 373.96 894.49 402.77 923.3 402.77 923.3 373.96 923.3 345.14 923.3 316.33 923.3 287.51 894.49 287.51"/><polygon class="cls-1" points="865.68 431.62 865.68 460.43 865.68 489.25 894.49 489.25 894.49 460.43 894.49 431.62 894.49 402.77 865.68 402.77 865.68 431.62"/><path class="cls-2" d="M894.49,345.14V287.52H865.68V201.07H836.86V172.26H808.05V143.44H779.23V114.63H692.76V85.81H606.32v28.82H548.69v28.81H519.87v28.82H491.06v57.63H462.25v86.44h28.81V287.52h28.81V258.7h28.82V229.89H721.6V258.7h28.82v28.82h28.81v28.81h28.82v28.81h28.81V460.43H808.05v28.82H779.23v28.81H635.13v28.81H836.86V489.25h28.82V402.77h28.81V345.14ZM692.76,172.26H577.5v28.81H548.69V172.26H577.5V143.44H721.6v28.82h28.82v28.81H721.6V172.26Z"/><polygon class="cls-1" points="865.68 258.7 865.68 287.51 894.49 287.51 894.49 258.7 894.49 229.89 894.49 201.07 865.68 201.07 865.68 229.89 865.68 258.7"/><polygon class="cls-1" points="836.86 518.06 836.86 546.87 865.68 546.87 865.68 518.06 865.68 489.25 836.86 489.25 836.86 518.06"/><rect class="cls-1" x="836.86" y="172.26" width="28.81" height="28.81"/><rect class="cls-1" x="808.05" y="143.44" width="28.81" height="28.81"/><polygon class="cls-1" points="779.23 546.87 750.42 546.87 721.6 546.87 721.6 575.69 750.42 575.69 779.23 575.69 808.05 575.69 836.86 575.69 836.86 546.87 808.05 546.87 779.23 546.87"/><rect class="cls-3" x="779.23" y="402.77" width="28.81" height="28.84"/><rect class="cls-4" x="779.23" y="373.96" width="28.81" height="28.81"/><polygon class="cls-5" points="779.23 373.96 808.05 373.96 808.05 402.77 808.05 431.62 779.23 431.62 779.23 460.43 779.23 489.25 808.05 489.25 808.05 460.43 836.86 460.43 836.86 431.62 836.86 402.77 836.86 373.96 836.86 345.14 808.05 345.14 808.05 316.33 779.23 316.33 779.23 345.14 779.23 373.96"/><rect class="cls-1" x="779.23" y="114.63" width="28.81" height="28.81"/><polygon class="cls-4" points="779.23 431.62 779.23 402.77 750.42 402.77 750.42 431.62 721.6 431.62 721.6 460.43 750.42 460.43 750.42 489.25 779.23 489.25 779.23 460.43 779.23 431.62"/><rect class="cls-5" x="750.42" y="287.52" width="28.81" height="28.81"/><polygon class="cls-5" points="750.42 460.43 721.6 460.43 721.6 431.62 692.76 431.62 692.76 460.43 663.95 460.43 663.95 489.25 635.13 489.25 606.32 489.25 606.32 518.06 635.13 518.06 663.95 518.06 692.76 518.06 721.6 518.06 750.42 518.06 779.23 518.06 779.23 489.25 750.42 489.25 750.42 460.43"/><polygon class="cls-5" points="750.42 402.77 779.23 402.77 779.23 373.96 750.42 373.96 721.6 373.96 721.6 402.77 721.6 431.62 750.42 431.62 750.42 402.77"/><polygon class="cls-6" points="721.6 316.33 721.6 345.14 692.76 345.14 692.76 316.33 692.76 287.51 663.95 287.51 663.95 316.33 663.95 345.14 663.95 373.96 635.13 373.96 635.13 402.77 663.95 402.77 663.95 431.62 663.95 460.43 692.76 460.43 692.76 431.62 721.6 431.62 721.6 402.77 721.6 373.96 750.42 373.96 779.23 373.96 779.23 345.14 779.23 316.33 750.42 316.33 750.42 287.51 721.6 287.51 721.6 316.33"/><rect class="cls-5" x="721.6" y="258.7" width="28.81" height="28.81"/><rect class="cls-1" x="721.6" y="172.26" width="28.81" height="28.81"/><polygon class="cls-7" points="692.76 575.69 663.95 575.69 635.13 575.69 635.13 546.87 606.32 546.87 577.5 546.87 577.5 575.69 548.69 575.69 548.69 604.5 519.87 604.5 491.06 604.5 491.06 633.32 462.25 633.32 433.43 633.32 404.62 633.32 404.62 662.13 375.8 662.13 346.96 662.13 318.14 662.13 289.33 662.13 260.51 662.13 231.7 662.13 231.7 633.32 202.89 633.32 174.07 633.32 145.26 633.32 145.26 662.13 174.07 662.13 174.07 690.95 174.07 719.76 174.07 748.58 145.26 748.58 145.26 777.42 145.26 806.23 145.26 835.05 145.26 863.86 174.07 863.86 202.89 863.86 231.7 863.86 231.7 835.05 231.7 806.23 202.89 806.23 202.89 777.42 231.7 777.42 231.7 748.58 231.7 719.76 231.7 690.95 260.51 690.95 260.51 719.76 289.33 719.76 289.33 748.58 318.14 748.58 318.14 777.42 346.96 777.42 375.8 777.42 404.62 777.42 404.62 748.58 404.62 719.76 375.8 719.76 346.96 719.76 318.14 719.76 318.14 690.95 346.96 690.95 375.8 690.95 404.62 690.95 433.43 690.95 433.43 662.13 462.25 662.13 491.06 662.13 519.87 662.13 519.87 633.32 548.69 633.32 577.5 633.32 577.5 662.13 577.5 690.95 577.5 719.76 577.5 748.58 606.32 748.58 635.13 748.58 635.13 719.76 635.13 690.95 606.32 690.95 606.32 662.13 606.32 633.32 635.13 633.32 635.13 604.5 663.95 604.5 692.76 604.5 721.6 604.5 721.6 633.32 750.42 633.32 779.23 633.32 808.05 633.32 808.05 604.5 779.23 604.5 750.42 604.5 750.42 575.69 721.6 575.69 692.76 575.69"/><rect class="cls-8" x="692.76" y="316.33" width="28.84" height="28.81"/><rect class="cls-4" x="692.76" y="287.52" width="28.84" height="28.81"/><rect class="cls-6" x="692.76" y="258.7" width="28.84" height="28.81"/><polygon class="cls-1" points="692.76 143.44 663.95 143.44 635.13 143.44 606.32 143.44 577.5 143.44 577.5 172.26 606.32 172.26 635.13 172.26 663.95 172.26 692.76 172.26 721.6 172.26 721.6 143.44 692.76 143.44"/><polygon class="cls-1" points="721.6 114.63 750.42 114.63 779.23 114.63 779.23 85.81 750.42 85.81 721.6 85.81 692.76 85.81 692.76 114.63 721.6 114.63"/><rect class="cls-4" x="663.95" y="258.7" width="28.81" height="28.81"/><polygon class="cls-9" points="663.95 575.69 692.76 575.69 721.6 575.69 721.6 546.87 692.76 546.87 663.95 546.87 635.13 546.87 635.13 575.69 663.95 575.69"/><polygon class="cls-5" points="635.13 460.43 663.95 460.43 663.95 431.62 663.95 402.77 635.13 402.77 635.13 431.62 635.13 460.43"/><polygon class="cls-4" points="663.95 345.14 663.95 316.33 663.95 287.51 635.13 287.51 635.13 316.33 635.13 345.14 635.13 373.96 663.95 373.96 663.95 345.14"/><polygon class="cls-1" points="663.95 85.81 692.76 85.81 692.76 57 663.95 57 635.13 57 606.32 57 606.32 85.81 635.13 85.81 663.95 85.81"/><rect class="cls-4" x="606.32" y="373.96" width="28.81" height="28.81"/><polygon class="cls-9" points="606.32 489.25 577.5 489.25 577.5 460.43 548.69 460.43 548.69 431.62 519.87 431.62 519.87 402.77 491.06 402.77 491.06 373.96 462.25 373.96 462.25 402.77 462.25 431.62 491.06 431.62 491.06 460.43 519.87 460.43 519.87 489.25 548.69 489.25 548.69 518.06 577.5 518.06 577.5 546.87 606.32 546.87 635.13 546.87 635.13 518.06 606.32 518.06 606.32 489.25"/><rect class="cls-4" x="577.5" y="402.77" width="28.81" height="28.84"/><polygon class="cls-1" points="606.32 114.63 606.32 85.81 577.5 85.81 548.69 85.81 548.69 114.63 577.5 114.63 606.32 114.63"/><rect class="cls-1" x="548.69" y="172.26" width="28.81" height="28.81"/><polygon class="cls-4" points="519.87 546.87 491.06 546.87 491.06 575.69 519.87 575.69 548.69 575.69 548.69 546.87 519.87 546.87"/><polygon class="cls-6" points="548.69 431.62 548.69 460.43 577.5 460.43 577.5 489.25 606.32 489.25 635.13 489.25 663.95 489.25 663.95 460.43 635.13 460.43 635.13 431.62 635.13 402.77 606.32 402.77 606.32 431.62 577.5 431.62 577.5 402.77 548.69 402.77 519.87 402.77 519.87 431.62 548.69 431.62"/><rect class="cls-1" x="519.87" y="114.63" width="28.81" height="28.81"/><rect class="cls-6" x="491.06" y="373.96" width="28.81" height="28.81"/><polygon class="cls-5" points="491.06 373.96 519.87 373.96 519.87 402.77 548.69 402.77 577.5 402.77 606.32 402.77 606.32 373.96 635.13 373.96 635.13 345.14 635.13 316.33 635.13 287.51 663.95 287.51 663.95 258.7 692.76 258.7 721.6 258.7 721.6 229.89 692.76 229.89 663.95 229.89 635.13 229.89 606.32 229.89 577.5 229.89 548.69 229.89 548.69 258.7 519.87 258.7 519.87 287.51 491.06 287.51 491.06 316.33 491.06 345.14 491.06 373.96"/><rect class="cls-1" x="491.06" y="143.44" width="28.81" height="28.81"/><rect class="cls-4" x="462.25" y="518.06" width="28.81" height="28.81"/><polygon class="cls-7" points="462.25 373.96 491.06 373.96 491.06 345.14 491.06 316.33 462.25 316.33 462.25 345.14 462.25 373.96"/><polygon class="cls-1" points="491.06 201.07 491.06 172.26 462.25 172.26 462.25 201.07 462.25 229.89 491.06 229.89 491.06 201.07"/><polygon class="cls-4" points="433.43 604.5 404.62 604.5 404.62 633.32 433.43 633.32 462.25 633.32 462.25 604.5 433.43 604.5"/><rect class="cls-4" x="433.43" y="489.25" width="28.81" height="28.81"/><polygon class="cls-9" points="433.43 345.14 433.43 373.96 462.25 373.96 462.25 345.14 462.25 316.33 433.43 316.33 433.43 345.14"/><polygon class="cls-1" points="462.25 316.33 462.25 287.51 462.25 258.7 462.25 229.89 433.43 229.89 433.43 258.7 433.43 287.51 433.43 316.33 462.25 316.33"/><rect class="cls-4" x="404.62" y="460.43" width="28.81" height="28.81"/><rect class="cls-4" x="375.8" y="575.69" width="28.81" height="28.81"/><polygon class="cls-4" points="404.62 402.77 404.62 373.96 375.8 373.96 375.8 402.77 375.8 431.62 375.8 460.43 404.62 460.43 404.62 431.62 404.62 402.77"/><rect class="cls-4" x="346.96" y="546.87" width="28.84" height="28.81"/><rect class="cls-4" x="318.14" y="518.06" width="28.81" height="28.81"/><polygon class="cls-4" points="318.14 460.43 318.14 431.62 318.14 402.77 289.33 402.77 289.33 431.62 289.33 460.43 289.33 489.25 289.33 518.06 318.14 518.06 318.14 489.25 318.14 460.43"/><rect class="cls-4" x="260.52" y="633.32" width="28.81" height="28.81"/><rect class="cls-6" x="231.7" y="633.32" width="28.81" height="28.81"/><rect class="cls-4" x="231.7" y="604.5" width="28.81" height="28.81"/><polygon class="cls-4" points="231.7 546.87 231.7 518.06 231.7 489.25 231.7 460.43 202.89 460.43 202.89 489.25 202.89 518.06 202.89 546.87 202.89 575.69 202.89 604.5 231.7 604.5 231.7 575.69 231.7 546.87"/><polygon class="cls-6" points="202.89 633.32 231.7 633.32 231.7 604.5 202.89 604.5 202.89 575.69 202.89 546.87 202.89 518.06 202.89 489.25 202.89 460.43 231.7 460.43 231.7 489.25 231.7 518.06 231.7 546.87 231.7 575.69 231.7 604.5 260.51 604.5 260.51 633.32 289.33 633.32 289.33 662.13 318.14 662.13 346.96 662.13 375.8 662.13 404.62 662.13 404.62 633.32 404.62 604.5 375.8 604.5 375.8 575.69 346.96 575.69 346.96 546.87 318.14 546.87 318.14 518.06 289.33 518.06 289.33 489.25 289.33 460.43 289.33 431.62 289.33 402.77 318.14 402.77 318.14 431.62 318.14 460.43 318.14 489.25 318.14 518.06 346.96 518.06 346.96 546.87 375.8 546.87 375.8 575.69 404.62 575.69 404.62 604.5 433.43 604.5 462.25 604.5 462.25 633.32 491.06 633.32 491.06 604.5 519.87 604.5 548.69 604.5 548.69 575.69 519.87 575.69 491.06 575.69 491.06 546.87 462.25 546.87 462.25 518.06 433.43 518.06 433.43 489.25 404.62 489.25 404.62 460.43 375.8 460.43 375.8 431.62 375.8 402.77 375.8 373.96 404.62 373.96 404.62 402.77 404.62 431.62 404.62 460.43 433.43 460.43 433.43 489.25 462.25 489.25 462.25 518.06 491.06 518.06 491.06 546.87 519.87 546.87 548.69 546.87 548.69 575.69 577.5 575.69 577.5 546.87 577.5 518.06 548.69 518.06 548.69 489.25 519.87 489.25 519.87 460.43 491.06 460.43 491.06 431.62 462.25 431.62 462.25 402.77 462.25 373.96 433.43 373.96 433.43 345.14 433.43 316.33 404.62 316.33 375.8 316.33 375.8 345.14 346.96 345.14 318.14 345.14 289.33 345.14 260.51 345.14 260.51 373.96 231.7 373.96 231.7 402.77 202.89 402.77 202.89 431.62 174.07 431.62 145.26 431.62 116.44 431.62 116.44 402.77 116.44 373.96 87.63 373.96 87.63 402.77 87.63 431.62 58.81 431.62 58.81 460.43 87.63 460.43 87.63 489.25 116.44 489.25 116.44 518.06 116.44 546.87 145.26 546.87 145.26 575.69 145.26 604.5 145.26 633.32 174.07 633.32 202.89 633.32"/><polygon class="cls-7" points="145.26 575.69 145.26 546.87 116.44 546.87 116.44 518.06 116.44 489.25 87.63 489.25 87.63 460.43 58.81 460.43 58.81 431.62 87.63 431.62 87.63 402.77 87.63 373.96 116.44 373.96 116.44 402.77 116.44 431.62 145.26 431.62 174.07 431.62 202.89 431.62 202.89 402.77 231.7 402.77 231.7 373.96 260.51 373.96 260.51 345.14 289.33 345.14 318.14 345.14 346.96 345.14 375.8 345.14 375.8 316.33 404.62 316.33 433.43 316.33 433.43 287.51 404.62 287.51 375.8 287.51 346.96 287.51 346.96 316.33 318.14 316.33 289.33 316.33 260.51 316.33 231.7 316.33 231.7 345.14 202.89 345.14 202.89 373.96 174.07 373.96 174.07 402.77 145.26 402.77 145.26 373.96 145.26 345.14 145.26 316.33 145.26 287.51 116.44 287.51 87.63 287.51 87.63 316.33 87.63 345.14 58.81 345.14 58.81 373.96 58.81 402.77 30 402.77 30 431.62 30 460.43 30 489.25 58.81 489.25 58.81 518.06 87.63 518.06 87.63 546.87 87.63 575.69 116.44 575.69 116.44 604.5 116.44 633.32 145.26 633.32 145.26 604.5 145.26 575.69"/></svg>