<svg id="Layer_1" data-name="Layer 1" xmlns="http://www.w3.org/2000/svg" viewBox="0 0 800 800"><defs><style>.cls-1{fill:#333;}.cls-2{fill:#666;}.cls-3{fill:#ccc;}.cls-4{fill:#999;}</style></defs><title>asteroid-med</title><rect class="cls-1" x="774.2" y="503.98" width="25.8" height="25.81"/><polygon class="cls-1" points="748.39 555.59 748.39 581.4 774.2 581.4 774.2 555.59 774.2 529.79 748.39 529.79 748.39 555.59"/><path class="cls-2" d="M748.39,504v-25.8H696.78V504H645.17v25.81H619.36v25.8H567.75V581.4H516.12v25.82h-51.6V633H412.91v25.82H361.3v25.81H335.48v25.79h129V684.64h25.81V658.83h25.79v25.81H490.33v25.79H464.52v25.82h129V710.43h25.81V684.64H567.75V658.83h51.61v25.81H671V658.83h25.81V633h25.8V581.4h25.81V529.79H774.2V504ZM593.55,633V607.22h25.81V633Zm103.23-25.79H671V581.4h25.81Zm25.8-51.63h-25.8v-25.8h25.8Z"/><polygon class="cls-1" points="748.39 503.98 774.2 503.98 774.2 478.19 774.2 452.37 748.39 452.37 748.39 478.19 748.39 503.98"/><polygon class="cls-1" points="722.58 607.22 722.58 633.01 696.78 633.01 696.78 658.83 670.97 658.83 670.97 684.64 696.78 684.64 722.58 684.64 722.58 658.83 748.39 658.83 748.39 633.01 748.39 607.22 748.39 581.4 722.58 581.4 722.58 607.22"/><polygon class="cls-1" points="722.58 452.37 748.39 452.37 748.39 426.56 748.39 400.76 722.58 400.76 722.58 426.56 722.58 452.37"/><rect class="cls-1" x="696.78" y="529.79" width="25.8" height="25.8"/><polygon class="cls-1" points="696.78 400.76 722.58 400.76 722.58 374.95 722.58 349.14 696.78 349.14 696.78 374.95 696.78 400.76"/><rect class="cls-1" x="670.97" y="581.4" width="25.81" height="25.81"/><polygon class="cls-1" points="670.97 349.14 696.78 349.14 696.78 323.34 696.78 297.53 670.97 297.53 670.97 323.34 670.97 349.14"/><rect class="cls-1" x="645.17" y="271.73" width="25.8" height="25.8"/><polygon class="cls-1" points="619.36 684.64 619.36 710.43 645.17 710.43 670.97 710.43 670.97 684.64 645.17 684.64 619.36 684.64"/><polygon class="cls-1" points="619.36 271.73 645.17 271.73 645.17 245.92 645.17 220.11 619.36 220.11 619.36 245.92 619.36 271.73"/><rect class="cls-1" x="593.55" y="710.43" width="25.81" height="25.81"/><polygon class="cls-1" points="593.55 658.83 567.75 658.83 567.75 684.64 593.55 684.64 619.36 684.64 619.36 658.83 593.55 658.83"/><rect class="cls-1" x="593.55" y="607.22" width="25.81" height="25.8"/><polygon class="cls-1" points="593.55 220.11 619.36 220.11 619.36 194.31 619.36 168.5 593.55 168.5 593.55 194.31 593.55 220.11"/><rect class="cls-1" x="567.75" y="478.18" width="25.8" height="25.8"/><rect class="cls-1" x="567.75" y="349.14" width="25.8" height="25.81"/><polygon class="cls-1" points="541.94 736.25 516.13 736.25 490.33 736.25 464.52 736.25 464.52 762.04 490.33 762.04 516.13 762.04 541.94 762.04 567.75 762.04 593.55 762.04 593.55 736.25 567.75 736.25 541.94 736.25"/><polygon class="cls-1" points="541.94 142.68 567.75 142.68 567.75 168.5 593.55 168.5 593.55 142.68 593.55 116.89 567.75 116.89 541.94 116.89 516.13 116.89 516.13 142.68 541.94 142.68"/><rect class="cls-1" x="490.33" y="658.83" width="25.8" height="25.81"/><rect class="cls-1" x="464.52" y="684.64" width="25.81" height="25.8"/><rect class="cls-1" x="464.52" y="271.73" width="25.81" height="25.8"/><polygon class="cls-3" points="490.33 220.11 516.13 220.11 516.13 194.31 490.33 194.31 464.52 194.31 464.52 220.11 490.33 220.11"/><polygon class="cls-1" points="490.33 116.89 516.13 116.89 516.13 91.08 490.33 91.08 464.52 91.08 464.52 116.89 490.33 116.89"/><polygon class="cls-1" points="438.72 710.43 412.91 710.43 387.09 710.43 361.3 710.43 335.48 710.43 335.48 736.25 361.3 736.25 387.09 736.25 412.91 736.25 438.72 736.25 464.52 736.25 464.52 710.43 438.72 710.43"/><polygon class="cls-1" points="438.72 529.79 438.72 555.59 464.52 555.59 490.33 555.59 490.33 529.79 464.52 529.79 438.72 529.79"/><rect class="cls-1" x="438.72" y="400.76" width="25.8" height="25.8"/><polygon class="cls-3" points="412.91 349.14 412.91 374.95 438.72 374.95 464.52 374.95 464.52 349.14 464.52 323.34 464.52 297.53 438.72 297.53 412.91 297.53 412.91 323.34 412.91 349.14"/><polygon class="cls-3" points="438.72 194.31 464.52 194.31 464.52 168.5 490.33 168.5 490.33 142.68 464.52 142.68 438.72 142.68 438.72 168.5 412.91 168.5 412.91 194.31 438.72 194.31"/><polygon class="cls-1" points="438.72 91.08 464.52 91.08 464.52 65.28 438.72 65.28 412.91 65.28 387.09 65.28 387.09 91.08 412.91 91.08 438.72 91.08"/><polygon class="cls-1" points="387.09 323.34 361.3 323.34 361.3 349.14 387.09 349.14 412.91 349.14 412.91 323.34 387.09 323.34"/><rect class="cls-4" x="387.09" y="297.53" width="25.81" height="25.81"/><polygon class="cls-1" points="387.09 194.31 387.09 220.11 412.91 220.11 438.72 220.11 438.72 194.31 412.91 194.31 412.91 168.5 387.09 168.5 387.09 194.31"/><rect class="cls-3" x="387.09" y="142.68" width="25.81" height="25.81"/><rect class="cls-3" x="387.09" y="91.07" width="25.81" height="25.81"/><polygon class="cls-3" points="361.3 271.73 361.3 297.53 335.48 297.53 335.48 323.34 361.3 323.34 387.09 323.34 387.09 297.53 412.91 297.53 412.91 271.73 412.91 245.92 387.09 245.92 387.09 271.73 361.3 271.73"/><polygon class="cls-3" points="361.3 168.5 335.48 168.5 335.48 194.31 309.67 194.31 309.67 220.11 283.88 220.11 283.88 245.92 283.88 271.73 309.67 271.73 309.67 245.92 335.48 245.92 335.48 220.11 361.3 220.11 361.3 194.31 387.09 194.31 387.09 168.5 361.3 168.5"/><rect class="cls-3" x="361.3" y="116.89" width="25.8" height="25.8"/><polygon class="cls-1" points="335.48 633.01 335.48 658.83 335.48 684.64 361.3 684.64 361.3 658.83 361.3 633.01 335.48 633.01"/><rect class="cls-1" x="335.48" y="529.79" width="25.81" height="25.8"/><rect class="cls-1" x="309.67" y="684.64" width="25.81" height="25.8"/><path class="cls-4" d="M335.48,658.83V633H361.3v25.82h51.61V633h51.61V607.22h51.6V581.4h51.63V555.59h51.61v-25.8h25.81V504h51.61v-25.8h51.61V452.37H722.58V400.76h-25.8V349.14H671V297.53h-25.8v-25.8H619.36V220.11H593.55V168.5h-25.8V142.68H516.12V116.89h-51.6V91.07H412.91v25.82H387.09v25.79h25.82V168.5h25.81V142.68h51.61V168.5H464.52v25.81h51.6v25.8h-51.6v-25.8h-25.8v25.8H387.09v-25.8H361.3v25.8H335.48v25.81H309.67v25.81H283.88v25.8H258.06v-25.8h25.82V220.11H258.06v-25.8H180.64V168.5H129v25.81H77.42V349.14H51.61v51.62H25.81v51.61H77.42v25.81H129V504h51.61v-25.8h51.63V504H180.64v25.81h25.81v25.8h25.82V581.4h25.79V633h25.82v25.82h25.79v25.81h25.81ZM593.55,504h-25.8v-25.8h25.8ZM490.33,555.59H438.72v-25.8h51.61Zm-154.85-25.8H361.3v25.8H335.48ZM593.55,375h-25.8V349.14h25.8Zm-129,51.61h-25.8v-25.8h25.8Zm-154.85-25.8v25.8h25.81v-25.8h51.61v25.8H361.3v51.62H309.67V426.56H283.88v-25.8ZM412.91,245.92v51.61h51.61v-25.8h25.81v25.8H464.52V375H412.91V349.14H361.3v-25.8H335.48V297.53H361.3v-25.8h25.79V245.92ZM154.84,220.11h77.43v25.81H129V220.11Zm25.8,232.26H129V426.56H77.42v-25.8h25.8V297.53H129v-25.8h51.61v25.8h51.63v25.81h51.61v25.8H258.06V375H206.45V323.34H180.64V297.53h-25.8V375H129v51.61h51.61v-25.8h51.63v25.8H206.45v25.81Z"/><polygon class="cls-3" points="309.67 478.19 335.48 478.19 361.3 478.19 361.3 452.37 361.3 426.56 387.09 426.56 387.09 400.76 361.3 400.76 335.48 400.76 335.48 426.56 309.67 426.56 309.67 452.37 309.67 478.19"/><rect class="cls-1" x="283.88" y="658.83" width="25.8" height="25.81"/><rect class="cls-1" x="283.88" y="400.76" width="25.8" height="25.8"/><polygon class="cls-1" points="309.67 116.89 335.48 116.89 361.3 116.89 387.09 116.89 387.09 91.08 361.3 91.08 335.48 91.08 309.67 91.08 283.88 91.08 258.06 91.08 258.06 116.89 283.88 116.89 309.67 116.89"/><rect class="cls-1" x="258.06" y="633.01" width="25.81" height="25.81"/><rect class="cls-3" x="258.06" y="271.73" width="25.81" height="25.8"/><rect class="cls-1" x="258.06" y="194.31" width="25.81" height="25.8"/><polygon class="cls-3" points="283.88 168.5 309.67 168.5 309.67 142.68 283.88 142.68 258.06 142.68 232.27 142.68 232.27 168.5 206.45 168.5 180.64 168.5 180.64 194.31 206.45 194.31 232.27 194.31 258.06 194.31 258.06 168.5 283.88 168.5"/><polygon class="cls-4" points="283.88 142.68 309.67 142.68 309.67 168.5 283.88 168.5 258.06 168.5 258.06 194.31 283.88 194.31 283.88 220.11 309.67 220.11 309.67 194.31 335.48 194.31 335.48 168.5 361.3 168.5 387.09 168.5 387.09 142.68 361.3 142.68 361.3 116.89 335.48 116.89 309.67 116.89 283.88 116.89 258.06 116.89 258.06 142.68 283.88 142.68"/><polygon class="cls-1" points="258.06 581.4 232.27 581.4 232.27 607.22 232.27 633.01 258.06 633.01 258.06 607.22 258.06 581.4"/><rect class="cls-1" x="206.45" y="555.59" width="25.81" height="25.81"/><polygon class="cls-3" points="232.27 503.98 232.27 478.19 206.45 478.19 180.64 478.19 180.64 503.98 206.45 503.98 232.27 503.98"/><polygon class="cls-3" points="232.27 426.56 232.27 400.76 206.45 400.76 180.64 400.76 180.64 426.56 154.84 426.56 154.84 452.37 180.64 452.37 206.45 452.37 206.45 426.56 232.27 426.56"/><polygon class="cls-3" points="206.45 349.14 206.45 374.95 232.27 374.95 258.06 374.95 258.06 349.14 283.88 349.14 283.88 323.34 258.06 323.34 232.27 323.34 232.27 349.14 206.45 349.14"/><polygon class="cls-1" points="232.27 142.68 258.06 142.68 258.06 116.89 232.27 116.89 206.45 116.89 180.64 116.89 180.64 142.68 206.45 142.68 232.27 142.68"/><rect class="cls-1" x="180.64" y="529.79" width="25.81" height="25.8"/><polygon class="cls-1" points="206.45 323.34 206.45 349.14 232.27 349.14 232.27 323.34 232.27 297.53 206.45 297.53 180.64 297.53 180.64 323.34 206.45 323.34"/><polygon class="cls-4" points="206.45 168.5 232.27 168.5 232.27 142.68 206.45 142.68 180.64 142.68 180.64 168.5 206.45 168.5"/><polygon class="cls-1" points="154.84 503.98 129.03 503.98 129.03 529.79 154.84 529.79 180.64 529.79 180.64 503.98 154.84 503.98"/><polygon class="cls-1" points="180.64 168.5 180.64 142.68 154.84 142.68 129.03 142.68 129.03 168.5 154.84 168.5 180.64 168.5"/><rect class="cls-1" x="129.03" y="426.56" width="25.81" height="25.81"/><polygon class="cls-3" points="154.84 245.92 180.64 245.92 206.45 245.92 232.27 245.92 232.27 220.11 206.45 220.11 180.64 220.11 154.84 220.11 129.03 220.11 129.03 245.92 154.84 245.92"/><polygon class="cls-1" points="103.22 478.19 77.42 478.19 77.42 503.98 103.22 503.98 129.03 503.98 129.03 478.19 103.22 478.19"/><polygon class="cls-3" points="129.03 374.95 154.84 374.95 154.84 349.14 154.84 323.34 154.84 297.53 180.64 297.53 180.64 271.73 154.84 271.73 129.03 271.73 129.03 297.53 103.22 297.53 103.22 323.34 103.22 349.14 103.22 374.95 103.22 400.76 77.42 400.76 77.42 426.56 103.22 426.56 129.03 426.56 129.03 400.76 129.03 374.95"/><polygon class="cls-1" points="129.03 194.31 129.03 168.5 103.22 168.5 77.42 168.5 77.42 194.31 103.22 194.31 129.03 194.31"/><polygon class="cls-1" points="51.61 452.37 25.81 452.37 25.81 478.19 51.61 478.19 77.42 478.19 77.42 452.37 51.61 452.37"/><polygon class="cls-1" points="77.42 323.34 77.42 297.53 77.42 271.73 77.42 245.92 77.42 220.11 77.42 194.31 51.61 194.31 51.61 220.11 51.61 245.92 51.61 271.73 51.61 297.53 51.61 323.34 51.61 349.14 77.42 349.14 77.42 323.34"/><polygon class="cls-1" points="51.61 374.95 51.61 349.14 25.81 349.14 25.81 374.95 25.81 400.76 51.61 400.76 51.61 374.95"/><polygon class="cls-1" points="25.81 400.76 0 400.76 0 426.56 0 452.37 25.81 452.37 25.81 426.56 25.81 400.76"/></svg>