<svg id="Layer_1" data-name="Layer 1" xmlns="http://www.w3.org/2000/svg" viewBox="0 0 1000 400"><defs><style>.cls-1{fill:#837722;}.cls-2{fill:#dad7c5;}.cls-3{fill:#0a3542;}.cls-4{fill:#544b16;}.cls-5{fill:#07262d;}.cls-6{fill:#7895a4;}.cls-7{fill:#c6cdc7;}.cls-8{fill:#507282;}.cls-9{fill:#0f0e23;}.cls-10{fill:#242052;}.cls-11{fill:#6893ea;}.cls-12{fill:#66eded;}</style></defs><title>planet</title><path class="cls-1" d="M938.05,391.66V374h8.86v-.06H929.36V365H920.5v-8.85h-8.85v-8.85H902.8V329.62H894v-8.86h-8.86v-8.85h-8.86v-8.85h-8.85v8.85H840.83v-8.85h8.85v-8.85h-8.85V267.65H832V258.8h-8.86V250h-8.85V241.1h-8.85v-8.86h-8.85v-8.86h-8.85v-8.85H770v-17.7H752.3v17.7H734.59v8.85h-17.7v-8.85H708v8.85h-8.85v-8.85H654.92v-8.85h-8.85v8.85H628.36v8.85h-8.85V241.1h-8.85V250h-8.85v8.85h8.85v17.71h17.7v-8.86h8.85v17.71h8.86v8.85h8.85v-8.85h17.71v-8.85h-8.86v-8.86h-8.85V232.24h8.85V258.8h8.86v8.85h8.85v8.86h8.86v8.85h-8.86v17.7h-8.85v-8.85h-8.86v8.85h-17.7v-8.85h-8.86v-8.85h-8.85v17.7h-8.85v17.7h-17.7v8.86H593v8.85h-17.7v8.86h8.85v8.85H593v26.56h8.86v8.85h8.85v8.85h8.85v-8.85h8.85v-8.85h26.56v-8.85h8.85v8.85h17.71v-8.85h-8.85V356.18h-8.86v-8.85h8.86v8.85h8.85v17.71h8.86V365h8.85v-8.85H770v-8.85h8.85V329.62h8.87v8.85h8.85v8.86h17.7v8.85h8.85v44.26H946.91v-8.78ZM708,232.24v8.86h-8.85v-8.86Z"/><polygon class="cls-2" points="858.53 294.21 858.53 285.36 849.68 285.36 849.68 276.51 840.83 276.51 840.83 285.36 840.83 294.21 849.68 294.21 849.68 303.06 840.83 303.06 840.83 311.91 849.68 311.91 858.53 311.91 867.38 311.91 867.38 303.06 867.38 294.21 858.53 294.21"/><rect class="cls-3" x="814.27" y="391.59" width="8.85" height="8.85"/><polygon class="cls-2" points="823.12 391.59 823.12 382.74 823.12 373.89 823.12 365.04 823.12 356.18 814.27 356.18 814.27 347.33 805.42 347.33 796.57 347.33 796.57 338.47 787.72 338.47 787.72 329.62 778.85 329.62 778.85 338.47 778.85 347.33 770 347.33 770 356.18 778.85 356.18 787.72 356.18 787.72 365.04 787.72 373.89 778.85 373.89 770 373.89 770 382.74 770 391.59 778.85 391.59 787.72 391.59 796.57 391.59 796.57 400.44 805.42 400.44 814.27 400.44 814.27 391.59 823.12 391.59"/><polygon class="cls-1" points="787.72 391.59 778.85 391.59 770 391.59 761.15 391.59 761.15 382.74 761.15 373.89 752.3 373.89 743.45 373.89 734.6 373.89 725.74 373.89 716.89 373.89 716.89 382.74 716.89 391.59 716.89 400.44 725.74 400.44 734.6 400.44 743.45 400.44 752.3 400.44 761.15 400.44 770 400.44 778.85 400.44 787.72 400.44 796.57 400.44 796.57 391.59 787.72 391.59"/><polygon class="cls-3" points="770 365.04 761.15 365.04 761.15 373.89 761.15 382.74 761.15 391.59 770 391.59 770 382.74 770 373.89 778.85 373.89 778.85 365.04 770 365.04"/><polygon class="cls-1" points="778.85 365.04 778.85 373.89 787.72 373.89 787.72 365.04 787.72 356.18 778.85 356.18 770 356.18 770 365.04 778.85 365.04"/><rect class="cls-3" x="770" y="205.68" width="8.85" height="8.85"/><polygon class="cls-4" points="778.85 205.68 778.85 214.53 787.72 214.53 787.72 223.38 796.57 223.38 796.57 232.24 805.42 232.24 805.42 241.1 814.27 241.1 814.27 249.95 823.12 249.95 823.12 258.8 831.98 258.8 831.98 267.65 840.83 267.65 840.83 276.51 849.68 276.51 849.68 285.36 858.53 285.36 858.53 294.21 867.38 294.21 867.38 303.06 876.23 303.06 876.23 311.91 885.09 311.91 885.09 320.76 893.95 320.76 893.95 329.62 902.8 329.62 902.8 338.47 902.8 347.33 911.65 347.33 911.65 356.18 920.5 356.18 920.5 365.04 929.36 365.04 929.36 373.89 938.21 373.89 946.91 373.89 946.91 365.1 946.91 365.04 938.21 365.04 938.21 356.18 929.36 356.18 929.36 347.33 920.5 347.33 920.5 338.47 911.65 338.47 911.65 329.62 911.65 320.76 902.8 320.76 902.8 311.91 893.95 311.91 893.95 303.06 885.09 303.06 885.09 294.21 876.23 294.21 876.23 285.36 867.38 285.36 867.38 276.51 858.53 276.51 858.53 267.65 849.68 267.65 849.68 258.8 840.83 258.8 840.83 249.95 831.98 249.95 831.98 241.1 823.12 241.1 823.12 232.24 814.27 232.24 814.27 223.38 805.42 223.38 805.42 214.53 796.57 214.53 796.57 205.68 787.72 205.68 787.72 196.83 778.85 196.83 770 196.83 770 205.68 778.85 205.68"/><rect class="cls-1" x="716.89" y="205.68" width="8.85" height="8.85"/><polygon class="cls-3" points="716.89 382.74 708.04 382.74 699.19 382.74 699.19 391.59 708.04 391.59 708.04 400.44 716.89 400.44 716.89 391.59 716.89 382.74"/><rect class="cls-1" x="708.04" y="365.03" width="8.85" height="8.85"/><polygon class="cls-1" points="708.04 196.83 708.04 187.98 699.19 187.98 699.19 196.83 699.19 205.68 708.04 205.68 716.89 205.68 716.89 196.83 708.04 196.83"/><polygon class="cls-1" points="699.19 391.59 690.34 391.59 681.48 391.59 681.48 400.44 690.34 400.44 699.19 400.44 708.04 400.44 708.04 391.59 699.19 391.59"/><polygon class="cls-2" points="699.19 382.74 708.04 382.74 716.89 382.74 716.89 373.89 708.04 373.89 708.04 365.04 716.89 365.04 716.89 373.89 725.74 373.89 734.6 373.89 743.45 373.89 752.3 373.89 761.15 373.89 761.15 365.04 770 365.04 770 356.18 761.15 356.18 752.3 356.18 743.45 356.18 734.6 356.18 725.74 356.18 716.89 356.18 708.04 356.18 699.19 356.18 699.19 365.04 690.34 365.04 690.34 373.89 699.19 373.89 699.19 382.74"/><rect class="cls-3" x="699.19" y="232.24" width="8.85" height="8.86"/><polygon class="cls-2" points="708.04 179.13 699.19 179.13 690.34 179.13 690.34 187.98 699.19 187.98 708.04 187.98 708.04 179.13"/><polygon class="cls-3" points="699.19 382.74 699.19 373.89 690.34 373.89 681.48 373.89 681.48 382.74 690.34 382.74 699.19 382.74"/><polygon class="cls-2" points="690.34 391.59 699.19 391.59 699.19 382.74 690.34 382.74 681.48 382.74 681.48 391.59 690.34 391.59"/><rect class="cls-2" x="672.63" y="391.59" width="8.85" height="8.85"/><polygon class="cls-3" points="681.48 391.59 681.48 382.74 672.63 382.74 663.77 382.74 663.77 391.59 663.77 400.44 672.63 400.44 672.63 391.59 681.48 391.59"/><polygon class="cls-2" points="681.48 356.18 672.63 356.18 672.63 365.04 672.63 373.89 681.48 373.89 681.48 365.04 681.48 356.18"/><rect class="cls-2" x="672.63" y="187.98" width="8.85" height="8.85"/><rect class="cls-2" x="663.77" y="347.33" width="8.86" height="8.85"/><polygon class="cls-1" points="663.77 382.74 654.92 382.74 654.92 391.59 654.92 400.44 663.77 400.44 663.77 391.59 663.77 382.74"/><rect class="cls-3" x="654.92" y="373.89" width="8.85" height="8.85"/><polygon class="cls-3" points="654.92 382.74 646.07 382.74 637.21 382.74 628.36 382.74 628.36 391.59 619.51 391.59 619.51 400.44 628.36 400.44 637.21 400.44 646.07 400.44 654.92 400.44 654.92 391.59 654.92 382.74"/><polygon class="cls-3" points="654.92 303.06 663.77 303.06 663.77 294.21 672.63 294.21 672.63 303.06 681.48 303.06 681.48 294.21 681.48 285.36 690.34 285.36 690.34 276.51 681.48 276.51 681.48 267.65 672.63 267.65 672.63 258.8 663.77 258.8 663.77 249.95 663.77 241.1 663.77 232.24 654.92 232.24 654.92 241.1 654.92 249.95 654.92 258.8 654.92 267.65 663.77 267.65 663.77 276.51 672.63 276.51 672.63 285.36 663.77 285.36 654.92 285.36 654.92 294.21 646.07 294.21 646.07 303.06 654.92 303.06"/><rect class="cls-3" x="637.21" y="285.36" width="8.85" height="8.85"/><polygon class="cls-2" points="637.21 170.27 637.21 179.13 646.07 179.13 654.92 179.13 654.92 170.27 646.07 170.27 637.21 170.27"/><polygon class="cls-2" points="628.36 170.27 628.36 161.42 619.51 161.42 619.51 170.27 619.51 179.13 628.36 179.13 628.36 170.27"/><polygon class="cls-2" points="601.81 391.59 601.81 382.74 592.96 382.74 592.96 373.89 584.1 373.89 584.1 382.74 575.25 382.74 575.25 391.59 584.1 391.59 592.96 391.59 592.96 400.44 601.81 400.44 610.66 400.44 610.66 391.59 601.81 391.59"/><rect class="cls-2" x="601.81" y="285.36" width="8.85" height="8.85"/><rect class="cls-2" x="601.81" y="161.42" width="8.85" height="8.85"/><polygon class="cls-1" points="601.81 303.06 592.96 303.06 592.96 311.91 584.1 311.91 584.1 303.06 592.96 303.06 592.96 294.21 584.1 294.21 584.1 285.36 584.1 276.51 575.25 276.51 575.25 267.65 566.4 267.65 557.55 267.65 557.55 276.51 557.55 285.36 557.55 294.21 548.68 294.21 548.68 303.06 539.83 303.06 539.83 311.91 539.83 320.76 548.68 320.76 557.55 320.76 557.55 311.91 566.4 311.91 566.4 303.06 566.4 294.21 575.25 294.21 575.25 303.06 575.25 311.91 575.25 320.76 566.4 320.76 566.4 329.62 575.25 329.62 584.1 329.62 584.1 320.76 592.96 320.76 601.81 320.76 601.81 311.91 601.81 303.06"/><polygon class="cls-1" points="584.1 391.59 575.25 391.59 575.25 382.74 584.1 382.74 584.1 373.89 575.25 373.89 566.4 373.89 557.55 373.89 548.68 373.89 548.68 382.74 548.68 391.59 548.68 400.44 557.55 400.44 566.4 400.44 575.25 400.44 584.1 400.44 592.96 400.44 592.96 391.59 584.1 391.59"/><rect class="cls-2" x="584.1" y="303.06" width="8.85" height="8.85"/><polygon class="cls-2" points="592.96 232.24 601.81 232.24 601.81 223.38 592.96 223.38 584.1 223.38 575.25 223.38 575.25 232.24 584.1 232.24 592.96 232.24"/><polygon class="cls-2" points="584.1 161.42 584.1 170.27 584.1 179.13 592.96 179.13 592.96 170.27 592.96 161.42 601.81 161.42 601.81 152.57 592.96 152.57 584.1 152.57 575.25 152.57 575.25 161.42 584.1 161.42"/><polygon class="cls-5" points="575.25 134.87 584.1 134.87 592.96 134.87 601.81 134.87 610.66 134.87 610.66 143.72 619.51 143.72 628.36 143.72 637.21 143.72 646.07 143.72 646.07 152.57 654.92 152.57 663.77 152.57 672.63 152.57 672.63 161.42 681.48 161.42 690.34 161.42 690.34 170.27 699.19 170.27 708.04 170.27 716.89 170.27 716.89 179.13 725.74 179.13 725.74 187.98 734.6 187.98 743.45 187.98 743.45 196.83 752.3 196.83 761.15 196.83 770 196.83 770 187.98 761.15 187.98 752.3 187.98 752.3 179.13 743.45 179.13 734.6 179.13 734.6 170.27 725.74 170.27 725.74 161.42 716.89 161.42 708.04 161.42 699.19 161.42 699.19 152.57 690.34 152.57 681.48 152.57 681.48 143.72 672.63 143.72 663.77 143.72 654.92 143.72 654.92 134.87 646.07 134.87 637.21 134.87 628.36 134.87 619.51 134.87 619.51 126.01 610.66 126.01 601.81 126.01 592.96 126.01 584.1 126.01 575.25 126.01 575.25 134.87"/><polygon class="cls-2" points="575.25 214.53 584.1 214.53 584.1 205.68 592.96 205.68 601.81 205.68 601.81 196.83 592.96 196.83 584.1 196.83 575.25 196.83 575.25 187.98 566.4 187.98 557.55 187.98 557.55 196.83 557.55 205.68 557.55 214.53 566.4 214.53 575.25 214.53"/><polygon class="cls-6" points="575.25 126.01 566.4 126.01 566.4 134.87 557.55 134.87 548.68 134.87 548.68 143.72 548.68 152.57 548.68 161.42 539.83 161.42 539.83 170.27 548.68 170.27 557.55 170.27 557.55 161.42 557.55 152.57 557.55 143.72 566.4 143.72 575.25 143.72 584.1 143.72 584.1 134.87 575.25 134.87 575.25 126.01"/><polygon class="cls-2" points="557.55 249.95 548.68 249.95 548.68 258.8 557.55 258.8 566.4 258.8 566.4 249.95 557.55 249.95"/><rect class="cls-2" x="557.55" y="232.24" width="8.85" height="8.86"/><rect class="cls-2" x="548.68" y="223.38" width="8.86" height="8.85"/><polygon class="cls-3" points="548.68 382.74 539.83 382.74 530.98 382.74 522.13 382.74 513.28 382.74 513.28 391.59 513.28 400.44 522.13 400.44 530.98 400.44 539.83 400.44 548.68 400.44 548.68 391.59 548.68 382.74"/><polygon class="cls-2" points="539.83 365.04 530.98 365.04 530.98 373.89 522.13 373.89 513.28 373.89 513.28 382.74 522.13 382.74 530.98 382.74 539.83 382.74 548.68 382.74 548.68 373.89 548.68 365.04 539.83 365.04"/><polygon class="cls-2" points="548.68 347.33 548.68 338.47 539.83 338.47 530.98 338.47 530.98 347.33 522.13 347.33 522.13 356.18 530.98 356.18 539.83 356.18 539.83 347.33 548.68 347.33"/><rect class="cls-2" x="539.83" y="214.53" width="8.85" height="8.85"/><polygon class="cls-7" points="548.68 152.57 548.68 143.72 548.68 134.87 557.55 134.87 566.4 134.87 566.4 126.01 557.55 126.01 548.68 126.01 539.83 126.01 539.83 117.15 530.98 117.15 522.13 117.15 513.28 117.15 504.43 117.15 495.57 117.15 486.72 117.15 477.87 117.15 469.02 117.15 460.17 117.15 451.31 117.15 442.45 117.15 442.45 126.01 442.45 134.87 451.31 134.87 451.31 143.72 460.17 143.72 469.02 143.72 477.87 143.72 486.72 143.72 495.57 143.72 504.43 143.72 513.28 143.72 513.28 152.57 522.13 152.57 530.98 152.57 539.83 152.57 539.83 161.42 548.68 161.42 548.68 152.57"/><polygon class="cls-6" points="530.98 152.57 522.13 152.57 513.28 152.57 513.28 161.42 522.13 161.42 530.98 161.42 539.83 161.42 539.83 152.57 530.98 152.57"/><rect class="cls-2" x="522.13" y="311.91" width="8.85" height="8.85"/><polygon class="cls-2" points="522.13 294.21 513.28 294.21 513.28 303.06 522.13 303.06 530.98 303.06 530.98 294.21 522.13 294.21"/><rect class="cls-2" x="513.28" y="356.18" width="8.85" height="8.85"/><polygon class="cls-2" points="522.13 267.65 530.98 267.65 539.83 267.65 539.83 258.8 539.83 249.95 530.98 249.95 530.98 258.8 522.13 258.8 513.28 258.8 513.28 267.65 522.13 267.65"/><polygon class="cls-1" points="513.28 232.24 504.43 232.24 495.57 232.24 486.72 232.24 486.72 241.1 495.57 241.1 504.43 241.1 504.43 249.95 513.28 249.95 513.28 241.1 522.13 241.1 530.98 241.1 530.98 232.24 522.13 232.24 513.28 232.24"/><polygon class="cls-2" points="522.13 232.24 530.98 232.24 530.98 223.38 522.13 223.38 513.28 223.38 513.28 232.24 522.13 232.24"/><polygon class="cls-2" points="513.28 382.74 504.43 382.74 504.43 391.59 495.57 391.59 495.57 382.74 486.72 382.74 486.72 373.89 495.57 373.89 504.43 373.89 504.43 365.04 495.57 365.04 486.72 365.04 477.87 365.04 477.87 373.89 477.87 382.74 469.02 382.74 460.17 382.74 460.17 391.59 460.17 400.44 469.02 400.44 469.02 391.59 477.87 391.59 486.72 391.59 486.72 400.44 495.57 400.44 504.43 400.44 513.28 400.44 513.28 391.59 513.28 382.74"/><rect class="cls-2" x="504.43" y="267.65" width="8.85" height="8.85"/><rect class="cls-2" x="504.43" y="214.53" width="8.85" height="8.85"/><polygon class="cls-6" points="504.43 143.72 495.57 143.72 486.72 143.72 477.87 143.72 469.02 143.72 460.17 143.72 460.17 152.57 469.02 152.57 477.87 152.57 486.72 152.57 495.57 152.57 504.43 152.57 513.28 152.57 513.28 143.72 504.43 143.72"/><polygon class="cls-2" points="495.57 303.06 495.57 311.91 504.43 311.91 513.28 311.91 513.28 303.06 504.43 303.06 495.57 303.06"/><rect class="cls-2" x="495.57" y="205.68" width="8.85" height="8.85"/><polygon class="cls-2" points="495.57 285.36 486.72 285.36 477.87 285.36 477.87 294.21 477.87 303.06 486.72 303.06 486.72 294.21 495.57 294.21 495.57 285.36"/><polygon class="cls-2" points="486.72 196.83 477.87 196.83 477.87 205.68 486.72 205.68 495.57 205.68 495.57 196.83 486.72 196.83"/><polygon class="cls-3" points="477.87 391.59 469.02 391.59 469.02 400.44 477.87 400.44 486.72 400.44 486.72 391.59 477.87 391.59"/><rect class="cls-2" x="469.02" y="356.18" width="8.85" height="8.85"/><polygon class="cls-3" points="460.17 382.74 469.02 382.74 477.87 382.74 477.87 373.89 477.87 365.04 469.02 365.04 469.02 373.89 460.17 373.89 451.31 373.89 442.45 373.89 442.45 382.74 451.31 382.74 451.31 391.59 451.31 400.44 460.17 400.44 460.17 391.59 460.17 382.74"/><polygon class="cls-2" points="451.31 329.62 460.17 329.62 460.17 338.47 469.02 338.47 469.02 329.62 477.87 329.62 477.87 320.76 469.02 320.76 460.17 320.76 460.17 311.91 451.31 311.91 442.45 311.91 442.45 320.76 451.31 320.76 451.31 329.62"/><polygon class="cls-2" points="451.31 143.72 442.45 143.72 442.45 152.57 451.31 152.57 460.17 152.57 460.17 143.72 451.31 143.72"/><polygon class="cls-2" points="451.31 382.74 442.45 382.74 442.45 373.89 451.31 373.89 460.17 373.89 469.02 373.89 469.02 365.04 460.17 365.04 451.31 365.04 442.45 365.04 433.6 365.04 433.6 356.18 433.6 347.33 442.45 347.33 442.45 338.47 442.45 329.62 442.45 320.76 433.6 320.76 433.6 329.62 433.6 338.47 424.75 338.47 415.9 338.47 415.9 347.33 407.05 347.33 407.05 338.47 407.05 329.62 398.19 329.62 398.19 338.47 398.19 347.33 398.19 356.18 407.05 356.18 407.05 365.04 398.19 365.04 389.34 365.04 389.34 373.89 398.19 373.89 398.19 382.74 389.34 382.74 389.34 391.59 389.34 400.44 398.19 400.44 407.05 400.44 415.9 400.44 424.75 400.44 433.6 400.44 442.45 400.44 451.31 400.44 451.31 391.59 451.31 382.74"/><rect class="cls-6" x="442.45" y="134.87" width="8.86" height="8.85"/><polygon class="cls-1" points="433.6 179.13 424.75 179.13 415.9 179.13 407.05 179.13 407.05 187.98 415.9 187.98 415.9 196.83 415.9 205.68 407.05 205.68 407.05 214.53 415.9 214.53 415.9 223.38 407.05 223.38 407.05 232.24 398.19 232.24 389.34 232.24 389.34 241.1 389.34 249.95 389.34 258.8 398.19 258.8 398.19 267.65 407.05 267.65 407.05 258.8 415.9 258.8 415.9 249.95 424.75 249.95 433.6 249.95 433.6 241.1 442.45 241.1 442.45 232.24 451.31 232.24 460.17 232.24 469.02 232.24 469.02 223.38 477.87 223.38 486.72 223.38 495.57 223.38 495.57 214.53 495.57 205.68 486.72 205.68 477.87 205.68 477.87 196.83 486.72 196.83 495.57 196.83 495.57 205.68 504.43 205.68 513.28 205.68 513.28 196.83 522.13 196.83 522.13 187.98 522.13 179.13 530.98 179.13 530.98 170.27 522.13 170.27 513.28 170.27 504.43 170.27 495.57 170.27 486.72 170.27 477.87 170.27 469.02 170.27 460.17 170.27 451.31 170.27 442.45 170.27 442.45 179.13 433.6 179.13"/><polygon class="cls-3" points="433.6 143.72 433.6 134.87 424.75 134.87 424.75 143.72 415.9 143.72 415.9 152.57 407.05 152.57 398.19 152.57 398.19 161.42 407.05 161.42 415.9 161.42 424.75 161.42 424.75 152.57 433.6 152.57 442.45 152.57 442.45 143.72 433.6 143.72"/><rect class="cls-2" x="433.6" y="134.87" width="8.85" height="8.85"/><rect class="cls-2" x="424.75" y="311.91" width="8.85" height="8.85"/><polygon class="cls-2" points="424.75 152.57 424.75 161.42 415.9 161.42 407.05 161.42 398.19 161.42 398.19 152.57 389.34 152.57 380.49 152.57 380.49 161.42 371.64 161.42 362.79 161.42 353.93 161.42 345.08 161.42 345.08 170.27 336.23 170.27 327.37 170.27 318.52 170.27 309.66 170.27 300.81 170.27 291.96 170.27 283.11 170.27 283.11 179.13 274.26 179.13 265.4 179.13 265.4 187.98 256.55 187.98 247.7 187.98 247.7 196.83 238.85 196.83 230 196.83 230 205.68 221.15 205.68 221.15 214.53 230 214.53 238.85 214.53 247.7 214.53 247.7 205.68 256.55 205.68 265.4 205.68 265.4 214.53 274.26 214.53 283.11 214.53 291.96 214.53 300.81 214.53 309.66 214.53 309.66 205.68 318.52 205.68 318.52 196.83 327.37 196.83 336.23 196.83 345.08 196.83 345.08 205.68 353.93 205.68 362.79 205.68 362.79 196.83 353.93 196.83 353.93 187.98 345.08 187.98 336.23 187.98 327.37 187.98 327.37 179.13 336.23 179.13 345.08 179.13 353.93 179.13 353.93 170.27 362.79 170.27 371.64 170.27 371.64 179.13 380.49 179.13 380.49 187.98 389.34 187.98 389.34 196.83 380.49 196.83 380.49 205.68 389.34 205.68 398.19 205.68 407.05 205.68 407.05 196.83 407.05 187.98 407.05 179.13 415.9 179.13 424.75 179.13 433.6 179.13 442.45 179.13 442.45 170.27 442.45 161.42 442.45 152.57 433.6 152.57 424.75 152.57"/><polygon class="cls-6" points="415.9 143.72 424.75 143.72 424.75 134.87 433.6 134.87 442.45 134.87 442.45 126.01 433.6 126.01 424.75 126.01 415.9 126.01 407.05 126.01 407.05 134.87 415.9 134.87 415.9 143.72"/><rect class="cls-2" x="407.05" y="214.53" width="8.85" height="8.85"/><polygon class="cls-3" points="415.9 196.83 415.9 187.98 407.05 187.98 407.05 196.83 407.05 205.68 415.9 205.68 415.9 196.83"/><rect class="cls-7" x="407.05" y="134.87" width="8.85" height="8.85"/><polygon class="cls-2" points="407.05 232.24 407.05 223.38 398.19 223.38 389.34 223.38 389.34 232.24 398.19 232.24 407.05 232.24"/><polygon class="cls-6" points="398.19 152.57 407.05 152.57 415.9 152.57 415.9 143.72 407.05 143.72 407.05 134.87 398.19 134.87 398.19 143.72 398.19 152.57"/><polygon class="cls-8" points="398.19 134.87 407.05 134.87 407.05 126.01 415.9 126.01 424.75 126.01 433.6 126.01 442.45 126.01 442.45 117.15 451.31 117.15 460.17 117.15 469.02 117.15 477.87 117.15 486.72 117.15 495.57 117.15 504.43 117.15 513.28 117.15 522.13 117.15 530.98 117.15 539.83 117.15 539.83 126.01 548.68 126.01 557.55 126.01 566.4 126.01 575.25 126.01 584.1 126.01 584.1 117.15 575.25 117.15 566.4 117.15 557.55 117.15 548.68 117.15 548.68 108.3 539.83 108.3 530.98 108.3 522.13 108.3 513.28 108.3 504.43 108.3 495.57 108.3 486.72 108.3 477.87 108.3 469.02 108.3 460.17 108.3 451.31 108.3 442.45 108.3 433.6 108.3 433.6 117.15 424.75 117.15 415.9 117.15 407.05 117.15 398.19 117.15 398.19 126.01 389.34 126.01 389.34 134.87 398.19 134.87"/><path class="cls-3" d="M389.34,382.74h8.85v-8.85h-8.85V365h17.71v-8.85h-8.86V329.62h8.86v17.71h8.85v-8.86h17.7V320.76h-8.85v-8.85h8.85v8.85h8.85v-8.85h17.72v8.85h17.7v8.86H469v8.85h-8.85v-8.85h-8.85v-8.86h-8.87v26.57H433.6V365H469v-8.85h8.85V365h26.56v8.86H486.72v8.85h8.85v8.85h8.86v-8.85h8.85v-8.85H531V365h17.7v8.86H593V356.18H584.1v-8.85h-8.85v-8.86H593v-8.85h8.86v-8.86H584.1v8.86H566.4v-8.86h8.85V294.21H566.4v17.7h-8.85v8.85H539.83v-17.7h8.85v-8.85h8.87V267.65h17.7v8.86h8.85v17.7H593v8.85h8.86v17.7h17.7v-17.7h8.85v-17.7h8.85V267.65h-8.85v8.86h-17.7V258.8h-8.85V250h8.85V241.1h8.85V223.38h8.85v-8.85h17.71v-8.85h8.85v8.85h44.27v8.85H708v-8.85h8.85v-8.85h-17.7V188h-8.85v-8.85H708v17.7h8.85v8.85h8.85v8.85h-8.85v8.85h17.7v-8.85H752.3v-17.7h-8.85V188H725.74v-8.85h-8.85v-8.86H690.34v-8.85H672.63v-8.85H646.07v-8.85H610.66v-8.85H584.1v8.85H557.55v26.55H539.83v-8.85H513.28v-8.85H442.45v17.7H531v8.86h-8.85v17.7h-8.85v8.85h-8.85v8.85h8.85v8.85H531V241.1h-17.7V250h-8.85V241.1H486.72v-8.86h26.56v-8.86h-8.85v-8.85h-8.86v8.85H469v8.86H442.45v8.86H433.6V250H415.9v8.85h-8.85v8.85h-8.86V258.8h-8.85V223.38h17.71v-17.7H380.49v-8.85h8.85V188h-17.7v8.85h-8.85v17.7h17.7v17.71H345.08V250H318.52V232.24h8.85v-8.86h8.86v-8.85H318.52v8.85h-8.86v8.86h-8.85v8.86h8.85v26.55h8.86V258.8h8.85v26.56h-8.85v8.85h8.85v17.7H309.66v8.85h8.86v8.86h8.85v26.56h-8.85V365h17.71v-8.85h8.85v17.71h8.85v26.55h35.41v-17.7Zm97.38-79.68h-8.85v-17.7h17.7v8.85h-8.85ZM531,356.18h-8.85V365h-8.85v-8.85h8.85v-8.85H531v-8.86h17.7v8.86h-8.85v8.85Zm0-35.42h-8.85v-8.85H531Zm-8.85-17.7h-8.85v8.85H495.57v-8.85h17.71v-8.85H531v8.85Zm35.42-44.26h-8.87V250H566.4v8.85Zm0-53.12V188h17.7v8.85h26.56v8.85H584.1v8.85H557.55Zm62-35.41v-8.85h8.85v17.71h-8.85Zm35.41,8.86H637.21v-8.86h17.71Zm-79.67,44.25h26.56v8.86H575.25Zm35.41,70.83h-8.85v-8.85h8.85Zm70.82-97.38h-8.85V188h8.85ZM584.1,152.57h17.71v8.85h8.85v8.85h-8.85v-8.85H593v17.71H584.1V161.42h-8.85v-8.85Zm-44.27,62h8.85v8.85h8.87v8.86h8.85v8.86h-8.85v-8.86h-8.87v-8.86h-8.85Zm-17.7,44.27H531V250h8.85v17.7H513.28v8.86h-8.85v-8.86h8.85V258.8Z"/><polygon class="cls-1" points="371.64 179.13 371.64 170.27 362.79 170.27 353.93 170.27 353.93 179.13 345.08 179.13 336.23 179.13 327.37 179.13 327.37 187.98 336.23 187.98 345.08 187.98 353.93 187.98 353.93 196.83 362.79 196.83 371.64 196.83 371.64 187.98 380.49 187.98 380.49 179.13 371.64 179.13"/><polygon class="cls-2" points="353.93 223.38 353.93 232.24 362.79 232.24 371.64 232.24 380.49 232.24 380.49 223.38 380.49 214.53 371.64 214.53 362.79 214.53 362.79 223.38 353.93 223.38"/><polygon class="cls-5" points="362.79 143.72 371.64 143.72 371.64 134.87 380.49 134.87 389.34 134.87 389.34 126.01 380.49 126.01 371.64 126.01 362.79 126.01 362.79 134.87 353.93 134.87 353.93 143.72 362.79 143.72"/><polygon class="cls-2" points="353.93 382.74 353.93 373.89 345.08 373.89 345.08 365.04 345.08 356.18 336.23 356.18 336.23 365.04 327.37 365.04 318.52 365.04 318.52 356.18 309.66 356.18 300.81 356.18 300.81 365.04 291.96 365.04 291.96 373.89 283.11 373.89 283.11 382.74 283.11 391.59 291.96 391.59 291.96 400.44 300.81 400.44 300.81 391.59 309.66 391.59 309.66 382.74 318.52 382.74 318.52 391.59 327.37 391.59 336.23 391.59 345.08 391.59 345.08 400.44 353.93 400.44 353.93 391.59 353.93 382.74"/><polygon class="cls-1" points="345.08 205.68 345.08 196.83 336.23 196.83 327.37 196.83 318.52 196.83 318.52 205.68 309.66 205.68 309.66 214.53 300.81 214.53 291.96 214.53 283.11 214.53 274.26 214.53 274.26 223.38 265.4 223.38 256.55 223.38 256.55 232.24 265.4 232.24 274.26 232.24 283.11 232.24 291.96 232.24 300.81 232.24 309.66 232.24 309.66 223.38 318.52 223.38 318.52 214.53 327.37 214.53 327.37 205.68 336.23 205.68 336.23 214.53 336.23 223.38 327.37 223.38 327.37 232.24 318.52 232.24 318.52 241.1 318.52 249.95 327.37 249.95 336.23 249.95 345.08 249.95 345.08 241.1 345.08 232.24 353.93 232.24 353.93 223.38 362.79 223.38 362.79 214.53 362.79 205.68 353.93 205.68 345.08 205.68"/><polygon class="cls-3" points="336.23 391.59 327.37 391.59 318.52 391.59 318.52 382.74 309.66 382.74 309.66 391.59 300.81 391.59 300.81 400.44 309.66 400.44 318.52 400.44 327.37 400.44 336.23 400.44 345.08 400.44 345.08 391.59 336.23 391.59"/><rect class="cls-2" x="327.37" y="205.68" width="8.86" height="8.85"/><polygon class="cls-3" points="318.52 170.27 327.37 170.27 336.23 170.27 345.08 170.27 345.08 161.42 353.93 161.42 362.79 161.42 371.64 161.42 380.49 161.42 380.49 152.57 389.34 152.57 398.19 152.57 398.19 143.72 398.19 134.87 389.34 134.87 380.49 134.87 371.64 134.87 371.64 143.72 362.79 143.72 353.93 143.72 345.08 143.72 345.08 152.57 336.23 152.57 327.37 152.57 318.52 152.57 318.52 161.42 309.66 161.42 300.81 161.42 300.81 170.27 309.66 170.27 318.52 170.27"/><polygon class="cls-1" points="300.81 329.62 300.81 338.47 291.96 338.47 283.11 338.47 283.11 347.33 291.96 347.33 300.81 347.33 300.81 356.18 309.66 356.18 318.52 356.18 327.37 356.18 327.37 347.33 327.37 338.47 327.37 329.62 318.52 329.62 318.52 320.76 309.66 320.76 309.66 329.62 300.81 329.62"/><rect class="cls-3" x="300.81" y="320.76" width="8.85" height="8.85"/><polygon class="cls-3" points="283.11 391.59 283.11 382.74 283.11 373.89 291.96 373.89 291.96 365.04 300.81 365.04 300.81 356.18 300.81 347.33 291.96 347.33 283.11 347.33 283.11 338.47 291.96 338.47 300.81 338.47 300.81 329.62 291.96 329.62 283.11 329.62 274.26 329.62 274.26 338.47 265.4 338.47 265.4 347.33 265.4 356.18 274.26 356.18 274.26 365.04 265.4 365.04 256.55 365.04 256.55 373.89 247.7 373.89 238.85 373.89 238.85 382.74 230 382.74 230 391.59 238.85 391.59 238.85 400.44 247.7 400.44 256.55 400.44 265.4 400.44 274.26 400.44 283.11 400.44 291.96 400.44 291.96 391.59 283.11 391.59"/><polygon class="cls-2" points="283.11 232.24 274.26 232.24 265.4 232.24 256.55 232.24 256.55 223.38 247.7 223.38 238.85 223.38 238.85 232.24 230 232.24 230 241.1 221.15 241.1 212.28 241.1 212.28 249.95 203.43 249.95 203.43 258.8 194.58 258.8 194.58 267.65 185.73 267.65 185.73 276.51 176.88 276.51 176.88 285.36 168.03 285.36 168.03 276.51 176.88 276.51 176.88 267.65 185.73 267.65 185.73 258.8 185.73 249.95 185.73 241.1 176.88 241.1 176.88 249.95 176.88 258.8 168.03 258.8 168.03 267.65 159.17 267.65 159.17 276.51 159.17 285.36 150.32 285.36 141.47 285.36 141.47 294.21 132.62 294.21 123.77 294.21 123.77 303.06 114.91 303.06 114.91 311.91 106.05 311.91 106.05 320.76 106.05 329.62 114.91 329.62 123.77 329.62 123.77 320.76 132.62 320.76 132.62 311.91 141.47 311.91 150.32 311.91 150.32 303.06 159.17 303.06 168.03 303.06 168.03 294.21 176.88 294.21 185.73 294.21 185.73 285.36 194.58 285.36 194.58 276.51 203.43 276.51 203.43 267.65 212.28 267.65 212.28 258.8 221.15 258.8 221.15 249.95 230 249.95 238.85 249.95 238.85 258.8 238.85 267.65 230 267.65 230 276.51 221.15 276.51 212.28 276.51 203.43 276.51 203.43 285.36 212.28 285.36 221.15 285.36 230 285.36 238.85 285.36 238.85 276.51 247.7 276.51 247.7 267.65 256.55 267.65 265.4 267.65 274.26 267.65 274.26 258.8 283.11 258.8 291.96 258.8 300.81 258.8 300.81 249.95 309.66 249.95 309.66 241.1 300.81 241.1 300.81 232.24 291.96 232.24 283.11 232.24"/><rect class="cls-1" x="274.26" y="170.27" width="8.85" height="8.85"/><rect class="cls-3" x="265.41" y="320.76" width="8.85" height="8.85"/><polygon class="cls-1" points="256.55 356.18 256.55 365.04 265.4 365.04 274.26 365.04 274.26 356.18 265.4 356.18 265.4 347.33 256.55 347.33 256.55 356.18"/><polygon class="cls-1" points="265.4 214.53 265.4 205.68 256.55 205.68 247.7 205.68 247.7 214.53 256.55 214.53 265.4 214.53"/><polygon class="cls-3" points="247.7 267.65 247.7 276.51 238.85 276.51 238.85 285.36 230 285.36 221.15 285.36 221.15 294.21 230 294.21 230 303.06 238.85 303.06 238.85 294.21 247.7 294.21 247.7 285.36 256.55 285.36 256.55 276.51 265.4 276.51 265.4 267.65 256.55 267.65 247.7 267.65"/><polygon class="cls-3" points="256.55 223.38 265.4 223.38 274.26 223.38 274.26 214.53 265.4 214.53 256.55 214.53 247.7 214.53 247.7 223.38 256.55 223.38"/><polygon class="cls-2" points="230 391.59 230 382.74 238.85 382.74 238.85 373.89 247.7 373.89 256.55 373.89 256.55 365.04 256.55 356.18 256.55 347.33 265.4 347.33 265.4 338.47 256.55 338.47 247.7 338.47 238.85 338.47 238.85 347.33 247.7 347.33 247.7 356.18 238.85 356.18 230 356.18 230 365.04 221.15 365.04 221.15 373.89 221.15 382.74 221.15 391.59 221.15 400.44 230 400.44 238.85 400.44 238.85 391.59 230 391.59"/><polygon class="cls-1" points="238.85 258.8 238.85 249.95 230 249.95 221.15 249.95 221.15 258.8 230 258.8 238.85 258.8"/><rect class="cls-3" x="221.15" y="303.06" width="8.85" height="8.85"/><polygon class="cls-3" points="221.15 276.51 230 276.51 230 267.65 238.85 267.65 238.85 258.8 230 258.8 221.15 258.8 221.15 267.65 221.15 276.51"/><path class="cls-1" d="M221.15,382.74V365H230v-8.85h17.7v-8.85h-8.85v-8.86h35.41v-8.85h-8.85v-8.86h8.85v8.86h26.55v-8.86h8.85v-8.85h17.71v-17.7h-8.85v-8.85h8.85V258.8h-8.85v8.85h-8.86V250h-8.85v8.85H274.26v8.85h-8.85v8.86h-8.86v8.85H247.7v8.85h-8.85v8.85H230v8.85h-8.85v-8.85H230v-8.85h-8.85v-8.85H203.43v-8.85h-8.85v8.85h-8.85v8.85H168v8.85h-17.7v8.85h-17.7v8.85h-8.85v8.86H97.2v8.85H88.35v8.86H79.5V365H70.64v8.86H53.09V374H62v17.71H53.09v8.78H221.15v-17.7Zm-17.72-8.85h-17.7V365h17.7Zm-44.26,0V365h17.71v8.86H168v8.85h-8.85Z"/><polygon class="cls-1" points="221.15 276.51 221.15 267.65 221.15 258.8 212.28 258.8 212.28 267.65 203.43 267.65 203.43 276.51 212.28 276.51 221.15 276.51"/><rect class="cls-3" x="212.28" y="214.53" width="8.86" height="8.85"/><rect class="cls-3" x="203.43" y="223.38" width="8.85" height="8.85"/><rect class="cls-5" x="203.43" y="214.53" width="8.85" height="8.85"/><rect class="cls-3" x="194.58" y="232.24" width="8.85" height="8.86"/><rect class="cls-5" x="194.58" y="223.38" width="8.85" height="8.85"/><polygon class="cls-2" points="185.73 365.04 185.73 373.89 194.58 373.89 203.43 373.89 203.43 365.04 194.58 365.04 185.73 365.04"/><polygon class="cls-1" points="185.73 258.8 185.73 267.65 194.58 267.65 194.58 258.8 203.43 258.8 203.43 249.95 212.28 249.95 212.28 241.1 221.15 241.1 230 241.1 230 232.24 238.85 232.24 238.85 223.38 247.7 223.38 247.7 214.53 238.85 214.53 230 214.53 221.15 214.53 221.15 223.38 212.28 223.38 212.28 232.24 203.43 232.24 203.43 241.1 194.58 241.1 185.73 241.1 185.73 249.95 185.73 258.8"/><rect class="cls-5" x="185.73" y="232.24" width="8.85" height="8.86"/><rect class="cls-1" x="176.88" y="267.65" width="8.85" height="8.85"/><rect class="cls-1" x="168.02" y="276.51" width="8.85" height="8.85"/><rect class="cls-1" x="168.02" y="249.95" width="8.85" height="8.85"/><polygon class="cls-2" points="168.03 373.89 176.88 373.89 176.88 365.04 168.03 365.04 159.17 365.04 159.17 373.89 159.17 382.74 168.03 382.74 168.03 373.89"/><rect class="cls-1" x="159.17" y="258.8" width="8.85" height="8.85"/><polygon class="cls-1" points="159.17 285.36 159.17 276.51 159.17 267.65 150.32 267.65 150.32 276.51 141.47 276.51 141.47 285.36 150.32 285.36 159.17 285.36"/><rect class="cls-1" x="132.62" y="285.36" width="8.85" height="8.85"/><polygon class="cls-4" points="70.64 373.89 70.64 365.04 79.5 365.04 79.5 356.18 79.5 347.33 88.35 347.33 88.35 338.47 97.2 338.47 97.2 329.62 106.05 329.62 106.05 320.76 106.05 311.91 114.91 311.91 114.91 303.06 123.77 303.06 123.77 294.21 132.62 294.21 132.62 285.36 141.47 285.36 141.47 276.51 150.32 276.51 150.32 267.65 159.17 267.65 159.17 258.8 168.03 258.8 168.03 249.95 176.88 249.95 176.88 241.1 185.73 241.1 185.73 232.24 194.58 232.24 194.58 223.38 203.43 223.38 203.43 214.53 212.28 214.53 221.15 214.53 221.15 205.68 230 205.68 230 196.83 238.85 196.83 247.7 196.83 247.7 187.98 256.55 187.98 265.4 187.98 265.4 179.13 274.26 179.13 274.26 170.27 283.11 170.27 291.96 170.27 300.81 170.27 300.81 161.42 309.66 161.42 318.52 161.42 318.52 152.57 327.37 152.57 336.23 152.57 345.08 152.57 345.08 143.72 353.93 143.72 353.93 134.87 345.08 134.87 336.23 134.87 336.23 143.72 327.37 143.72 318.52 143.72 309.66 143.72 309.66 152.57 300.81 152.57 291.96 152.57 291.96 161.42 283.11 161.42 274.26 161.42 265.4 161.42 265.4 170.27 256.55 170.27 256.55 179.13 247.7 179.13 238.85 179.13 238.85 187.98 230 187.98 221.15 187.98 221.15 196.83 212.28 196.83 212.28 205.68 203.43 205.68 194.58 205.68 194.58 214.53 185.73 214.53 185.73 223.38 176.88 223.38 176.88 232.24 168.03 232.24 168.03 241.1 159.17 241.1 159.17 249.95 150.32 249.95 150.32 258.8 141.47 258.8 141.47 267.65 132.62 267.65 132.62 276.51 123.77 276.51 123.77 285.36 114.91 285.36 114.91 294.21 106.05 294.21 106.05 303.06 97.2 303.06 97.2 311.91 97.2 320.76 88.35 320.76 88.35 329.62 79.5 329.62 79.5 338.47 70.64 338.47 70.64 347.33 70.64 356.18 61.79 356.18 61.79 365.04 53.09 365.04 53.09 365.1 53.09 373.89 61.79 373.89 70.64 373.89"/><polygon class="cls-9" points="991.15 373.95 991.15 365.1 991.15 356.25 991.15 347.4 982.3 347.4 982.3 338.55 982.3 329.7 973.46 329.7 973.46 320.85 964.6 320.85 964.6 312.01 955.75 312.01 955.75 303.15 947.06 303.15 947.06 303.06 947.06 294.21 947.06 285.36 938.21 285.36 938.21 276.51 929.36 276.51 929.36 267.65 920.5 267.65 920.5 258.8 911.65 258.8 911.65 249.95 902.8 249.95 902.8 241.1 893.95 241.1 893.95 232.24 885.09 232.24 885.09 223.38 876.23 223.38 876.23 214.53 867.38 214.53 867.38 205.68 858.53 205.68 858.53 196.83 849.68 196.83 849.68 187.98 840.83 187.98 840.83 179.13 831.98 179.13 831.98 170.27 823.12 170.27 823.12 161.42 814.27 161.42 805.42 161.42 805.42 152.57 796.57 152.57 787.72 152.57 787.72 143.72 778.85 143.72 770 143.72 770 134.87 761.15 134.87 761.15 126.01 752.3 126.01 743.45 126.01 734.6 126.01 734.6 117.15 725.74 117.15 716.89 117.15 716.89 108.3 708.04 108.3 699.19 108.3 690.34 108.3 690.34 99.45 681.48 99.45 672.63 99.45 663.77 99.45 654.92 99.45 654.92 90.6 646.07 90.6 637.21 90.6 628.36 90.6 619.51 90.6 619.51 81.74 610.66 81.74 601.81 81.74 592.96 81.74 584.1 81.74 584.1 72.89 575.25 72.89 566.4 72.89 557.55 72.89 548.68 72.89 539.83 72.89 530.98 72.89 522.13 72.89 513.28 72.89 504.43 72.89 495.57 72.89 486.72 72.89 477.87 72.89 469.02 72.89 460.17 72.89 451.31 72.89 442.45 72.89 433.6 72.89 424.75 72.89 415.9 72.89 407.05 72.89 398.19 72.89 398.19 81.74 389.34 81.74 380.49 81.74 371.64 81.74 362.79 81.74 362.79 90.6 353.93 90.6 345.08 90.6 336.23 90.6 327.37 90.6 327.37 99.45 318.52 99.45 309.66 99.45 300.81 99.45 300.81 108.3 291.96 108.3 283.11 108.3 274.26 108.3 274.26 117.15 265.4 117.15 256.55 117.15 256.55 126.01 247.7 126.01 238.85 126.01 230 126.01 230 134.87 221.15 134.87 221.15 143.72 212.28 143.72 203.43 143.72 203.43 152.57 194.58 152.57 185.73 152.57 185.73 161.42 176.88 161.42 176.88 170.27 168.03 170.27 159.17 170.27 159.17 179.13 150.32 179.13 150.32 187.98 141.47 187.98 141.47 196.83 132.62 196.83 132.62 205.68 123.77 205.68 123.77 214.53 114.91 214.53 114.91 223.38 106.05 223.38 106.05 232.24 97.2 232.24 97.2 241.1 88.35 241.1 88.35 249.95 79.5 249.95 79.5 258.8 70.64 258.8 70.64 267.65 61.79 267.65 61.79 276.51 61.79 285.36 52.94 285.36 52.94 294.21 52.94 294.31 44.25 294.31 44.25 303.15 35.4 303.15 35.4 312.01 35.4 320.85 26.55 320.85 26.55 329.7 17.7 329.7 17.7 338.55 17.7 347.4 8.85 347.4 8.85 356.25 8.85 365.1 8.85 373.95 0 373.95 0 382.8 0 391.65 0 400.5 8.85 400.5 8.85 391.65 8.85 382.8 17.7 382.8 17.7 373.95 17.7 365.1 17.7 356.25 26.55 356.25 26.55 347.4 26.55 338.55 35.4 338.55 35.4 329.7 44.25 329.7 44.25 320.85 44.25 312.01 53.09 312.01 53.09 303.15 53.09 303.06 61.79 303.06 61.79 294.21 70.64 294.21 70.64 285.36 70.64 276.51 79.5 276.51 79.5 267.65 88.35 267.65 88.35 258.8 97.2 258.8 97.2 249.95 106.05 249.95 106.05 241.1 114.91 241.1 114.91 232.24 123.77 232.24 123.77 223.38 132.62 223.38 132.62 214.53 141.47 214.53 141.47 205.68 150.32 205.68 150.32 196.83 159.17 196.83 159.17 187.98 168.03 187.98 168.03 179.13 176.88 179.13 185.73 179.13 185.73 170.27 194.58 170.27 194.58 161.42 203.43 161.42 212.28 161.42 212.28 152.57 221.15 152.57 230 152.57 230 143.72 238.85 143.72 238.85 134.87 247.7 134.87 256.55 134.87 265.4 134.87 265.4 126.01 274.26 126.01 283.11 126.01 283.11 117.15 291.96 117.15 300.81 117.15 309.66 117.15 309.66 108.3 318.52 108.3 327.37 108.3 336.23 108.3 336.23 99.45 345.08 99.45 353.93 99.45 362.79 99.45 371.64 99.45 371.64 90.6 380.49 90.6 389.34 90.6 398.19 90.6 407.05 90.6 407.05 81.74 415.9 81.74 424.75 81.74 433.6 81.74 442.45 81.74 451.31 81.74 460.17 81.74 469.02 81.74 477.87 81.74 486.72 81.74 495.57 81.74 504.43 81.74 513.28 81.74 522.13 81.74 530.98 81.74 539.83 81.74 548.68 81.74 557.55 81.74 566.4 81.74 575.25 81.74 575.25 90.6 584.1 90.6 592.96 90.6 601.81 90.6 610.66 90.6 610.66 99.45 619.51 99.45 628.36 99.45 637.21 99.45 646.07 99.45 646.07 108.3 654.92 108.3 663.77 108.3 672.63 108.3 681.48 108.3 681.48 117.15 690.34 117.15 699.19 117.15 708.04 117.15 708.04 126.01 716.89 126.01 725.74 126.01 725.74 134.87 734.6 134.87 743.45 134.87 752.3 134.87 752.3 143.72 761.15 143.72 761.15 152.57 770 152.57 778.85 152.57 778.85 161.42 787.72 161.42 796.57 161.42 796.57 170.27 805.42 170.27 814.27 170.27 814.27 179.13 823.12 179.13 823.12 187.98 831.98 187.98 831.98 196.83 840.83 196.83 840.83 205.68 849.68 205.68 849.68 214.53 858.53 214.53 858.53 223.38 867.38 223.38 867.38 232.24 876.23 232.24 876.23 241.1 885.09 241.1 885.09 249.95 893.95 249.95 893.95 258.8 902.8 258.8 902.8 267.65 911.65 267.65 911.65 276.51 920.5 276.51 920.5 285.36 929.36 285.36 929.36 294.21 938.21 294.21 938.21 303.06 938.21 311.91 946.91 311.91 946.91 312.01 946.91 320.85 955.75 320.85 955.75 329.7 964.6 329.7 964.6 338.55 973.46 338.55 973.46 347.4 973.46 356.25 982.3 356.25 982.3 365.1 982.3 373.95 982.3 382.8 991.15 382.8 991.15 391.65 991.15 400.5 1000 400.5 1000 391.65 1000 382.8 1000 373.95 991.15 373.95"/><polygon class="cls-10" points="991.15 382.8 982.3 382.8 982.3 373.95 982.3 365.1 982.3 356.25 973.46 356.25 973.46 347.4 973.46 338.55 964.6 338.55 964.6 329.7 955.75 329.7 955.75 320.85 946.91 320.85 946.91 312.01 946.91 311.91 938.21 311.91 938.21 303.06 938.21 294.21 929.36 294.21 929.36 285.36 920.5 285.36 920.5 276.51 911.65 276.51 911.65 267.65 902.8 267.65 902.8 258.8 893.95 258.8 893.95 249.95 885.09 249.95 885.09 241.1 876.23 241.1 876.23 232.24 867.38 232.24 867.38 223.38 858.53 223.38 858.53 214.53 849.68 214.53 849.68 205.68 840.83 205.68 840.83 196.83 831.98 196.83 831.98 187.98 823.12 187.98 823.12 179.13 814.27 179.13 814.27 170.27 805.42 170.27 796.57 170.27 796.57 161.42 787.72 161.42 778.85 161.42 778.85 152.57 770 152.57 761.15 152.57 761.15 143.72 752.3 143.72 752.3 134.87 743.45 134.87 734.6 134.87 725.74 134.87 725.74 126.01 716.89 126.01 708.04 126.01 708.04 117.15 699.19 117.15 690.34 117.15 681.48 117.15 681.48 108.3 672.63 108.3 663.77 108.3 654.92 108.3 646.07 108.3 646.07 99.45 637.21 99.45 628.36 99.45 619.51 99.45 610.66 99.45 610.66 90.6 601.81 90.6 592.96 90.6 584.1 90.6 575.25 90.6 575.25 81.74 566.4 81.74 557.55 81.74 548.68 81.74 539.83 81.74 530.98 81.74 522.13 81.74 513.28 81.74 504.43 81.74 495.57 81.74 486.72 81.74 477.87 81.74 469.02 81.74 460.17 81.74 451.31 81.74 442.45 81.74 433.6 81.74 424.75 81.74 415.9 81.74 407.05 81.74 407.05 90.6 398.19 90.6 389.34 90.6 380.49 90.6 371.64 90.6 371.64 99.45 362.79 99.45 353.93 99.45 345.08 99.45 336.23 99.45 336.23 108.3 327.37 108.3 318.52 108.3 309.66 108.3 309.66 117.15 300.81 117.15 291.96 117.15 283.11 117.15 283.11 126.01 274.26 126.01 265.4 126.01 265.4 134.87 256.55 134.87 247.7 134.87 238.85 134.87 238.85 143.72 230 143.72 230 152.57 221.15 152.57 212.28 152.57 212.28 161.42 203.43 161.42 194.58 161.42 194.58 170.27 185.73 170.27 185.73 179.13 176.88 179.13 168.03 179.13 168.03 187.98 159.17 187.98 159.17 196.83 150.32 196.83 150.32 205.68 141.47 205.68 141.47 214.53 132.62 214.53 132.62 223.38 123.77 223.38 123.77 232.24 114.91 232.24 114.91 241.1 106.05 241.1 106.05 249.95 97.2 249.95 97.2 258.8 88.35 258.8 88.35 267.65 79.5 267.65 79.5 276.51 70.64 276.51 70.64 285.36 70.64 294.21 61.79 294.21 61.79 303.06 53.09 303.06 53.09 303.15 53.09 312.01 44.25 312.01 44.25 320.85 44.25 329.7 35.4 329.7 35.4 338.55 26.55 338.55 26.55 347.4 26.55 356.25 17.7 356.25 17.7 365.1 17.7 373.95 17.7 382.8 8.85 382.8 8.85 391.65 8.85 400.5 17.7 400.5 26.55 400.5 26.55 391.65 26.55 382.8 26.55 373.95 26.55 365.1 35.4 365.1 35.4 356.25 35.4 347.4 44.25 347.4 44.25 338.55 53.09 338.55 53.09 329.7 53.09 320.85 61.95 320.85 61.95 312.01 61.79 312.01 61.79 311.91 70.64 311.91 70.64 303.06 79.5 303.06 79.5 294.21 79.5 285.36 88.35 285.36 88.35 276.51 97.2 276.51 97.2 267.65 106.05 267.65 106.05 258.8 114.91 258.8 114.91 249.95 123.77 249.95 123.77 241.1 132.62 241.1 132.62 232.24 141.47 232.24 141.47 223.38 150.32 223.38 150.32 214.53 159.17 214.53 159.17 205.68 168.03 205.68 168.03 196.83 176.88 196.83 176.88 187.98 185.73 187.98 194.58 187.98 194.58 179.13 203.43 179.13 203.43 170.27 212.28 170.27 221.15 170.27 221.15 161.42 230 161.42 238.85 161.42 238.85 152.57 247.7 152.57 247.7 143.72 256.55 143.72 265.4 143.72 274.26 143.72 274.26 134.87 283.11 134.87 291.96 134.87 291.96 126.01 300.81 126.01 309.66 126.01 318.52 126.01 318.52 117.15 327.37 117.15 336.23 117.15 345.08 117.15 345.08 108.3 353.93 108.3 362.79 108.3 371.64 108.3 380.49 108.3 380.49 99.45 389.34 99.45 398.19 99.45 407.05 99.45 415.9 99.45 415.9 90.6 424.75 90.6 433.6 90.6 442.45 90.6 451.31 90.6 460.17 90.6 469.02 90.6 477.87 90.6 486.72 90.6 495.57 90.6 504.43 90.6 513.28 90.6 522.13 90.6 530.98 90.6 539.83 90.6 548.68 90.6 557.55 90.6 566.4 90.6 566.4 99.45 575.25 99.45 584.1 99.45 592.96 99.45 601.81 99.45 601.81 108.3 610.66 108.3 619.51 108.3 628.36 108.3 637.21 108.3 637.21 117.15 646.07 117.15 654.92 117.15 663.77 117.15 672.63 117.15 672.63 126.01 681.48 126.01 690.34 126.01 699.19 126.01 699.19 134.87 708.04 134.87 716.89 134.87 716.89 143.72 725.74 143.72 734.6 143.72 743.45 143.72 743.45 152.57 752.3 152.57 752.3 161.42 761.15 161.42 770 161.42 770 170.27 778.85 170.27 787.72 170.27 787.72 179.13 796.57 179.13 805.42 179.13 805.42 187.98 814.27 187.98 814.27 196.83 823.12 196.83 823.12 205.68 831.98 205.68 831.98 214.53 840.83 214.53 840.83 223.38 849.68 223.38 849.68 232.24 858.53 232.24 858.53 241.1 867.38 241.1 867.38 249.95 876.23 249.95 876.23 258.8 885.09 258.8 885.09 267.65 893.95 267.65 893.95 276.51 902.8 276.51 902.8 285.36 911.65 285.36 911.65 294.21 920.5 294.21 920.5 303.06 929.36 303.06 929.36 311.91 929.36 320.76 938.21 320.76 938.21 329.62 946.91 329.62 946.91 329.7 946.91 338.55 955.75 338.55 955.75 347.4 964.6 347.4 964.6 356.25 964.6 365.1 973.46 365.1 973.46 373.95 973.46 382.8 973.46 391.65 973.46 400.5 982.3 400.5 991.15 400.5 991.15 391.65 991.15 382.8"/><polygon class="cls-11" points="973.46 382.8 973.46 373.95 973.46 365.1 964.6 365.1 964.6 356.25 964.6 347.4 955.75 347.4 955.75 338.55 946.91 338.55 946.91 329.7 946.91 329.62 938.21 329.62 938.21 320.76 929.36 320.76 929.36 311.91 929.36 303.06 920.5 303.06 920.5 294.21 911.65 294.21 911.65 285.36 902.8 285.36 902.8 276.51 893.95 276.51 893.95 267.65 885.09 267.65 885.09 258.8 876.23 258.8 876.23 249.95 867.38 249.95 867.38 241.1 858.53 241.1 858.53 232.24 849.68 232.24 849.68 223.38 840.83 223.38 840.83 214.53 831.98 214.53 831.98 205.68 823.12 205.68 823.12 196.83 814.27 196.83 814.27 187.98 805.42 187.98 805.42 179.13 796.57 179.13 787.72 179.13 787.72 170.27 778.85 170.27 770 170.27 770 161.42 761.15 161.42 752.3 161.42 752.3 152.57 743.45 152.57 743.45 143.72 734.6 143.72 725.74 143.72 716.89 143.72 716.89 134.87 708.04 134.87 699.19 134.87 699.19 126.01 690.34 126.01 681.48 126.01 672.63 126.01 672.63 117.15 663.77 117.15 654.92 117.15 646.07 117.15 637.21 117.15 637.21 108.3 628.36 108.3 619.51 108.3 610.66 108.3 601.81 108.3 601.81 99.45 592.96 99.45 584.1 99.45 575.25 99.45 566.4 99.45 566.4 90.6 557.55 90.6 548.68 90.6 539.83 90.6 530.98 90.6 522.13 90.6 513.28 90.6 504.43 90.6 495.57 90.6 486.72 90.6 477.87 90.6 469.02 90.6 460.17 90.6 451.31 90.6 442.45 90.6 433.6 90.6 424.75 90.6 415.9 90.6 415.9 99.45 407.05 99.45 398.19 99.45 389.34 99.45 380.49 99.45 380.49 108.3 371.64 108.3 362.79 108.3 353.93 108.3 345.08 108.3 345.08 117.15 336.23 117.15 327.37 117.15 318.52 117.15 318.52 126.01 309.66 126.01 300.81 126.01 291.96 126.01 291.96 134.87 283.11 134.87 274.26 134.87 274.26 143.72 265.4 143.72 256.55 143.72 247.7 143.72 247.7 152.57 238.85 152.57 238.85 161.42 230 161.42 221.15 161.42 221.15 170.27 212.28 170.27 203.43 170.27 203.43 179.13 194.58 179.13 194.58 187.98 185.73 187.98 176.88 187.98 176.88 196.83 168.03 196.83 168.03 205.68 159.17 205.68 159.17 214.53 150.32 214.53 150.32 223.38 141.47 223.38 141.47 232.24 132.62 232.24 132.62 241.1 123.77 241.1 123.77 249.95 114.91 249.95 114.91 258.8 106.05 258.8 106.05 267.65 97.2 267.65 97.2 276.51 88.35 276.51 88.35 285.36 79.5 285.36 79.5 294.21 79.5 303.06 70.64 303.06 70.64 311.91 61.79 311.91 61.79 312.01 61.95 312.01 61.95 320.85 53.09 320.85 53.09 329.7 53.09 338.55 44.25 338.55 44.25 347.4 35.4 347.4 35.4 356.25 35.4 365.1 26.55 365.1 26.55 373.95 26.55 382.8 26.55 391.65 26.55 400.5 35.4 400.5 35.4 391.65 35.4 382.8 35.4 373.95 44.25 373.95 44.25 365.1 44.25 356.25 53.09 356.25 53.09 347.4 53.09 347.33 61.79 347.33 61.79 338.47 61.79 329.62 70.64 329.62 70.64 320.76 79.5 320.76 79.5 311.91 88.35 311.91 88.35 303.06 88.35 294.21 97.2 294.21 97.2 285.36 106.05 285.36 106.05 276.51 114.91 276.51 114.91 267.65 123.77 267.65 123.77 258.8 132.62 258.8 132.62 249.95 141.47 249.95 141.47 241.1 150.32 241.1 150.32 232.24 159.17 232.24 159.17 223.38 168.03 223.38 168.03 214.53 176.88 214.53 176.88 205.68 185.73 205.68 185.73 196.83 194.58 196.83 203.43 196.83 203.43 187.98 212.28 187.98 212.28 179.13 221.15 179.13 230 179.13 230 170.27 238.85 170.27 247.7 170.27 247.7 161.42 256.55 161.42 256.55 152.57 265.4 152.57 274.26 152.57 283.11 152.57 283.11 143.72 291.96 143.72 300.81 143.72 300.81 134.87 309.66 134.87 318.52 134.87 327.37 134.87 327.37 126.01 336.23 126.01 345.08 126.01 353.93 126.01 353.93 117.15 362.79 117.15 371.64 117.15 380.49 117.15 389.34 117.15 389.34 108.3 398.19 108.3 407.05 108.3 415.9 108.3 424.75 108.3 424.75 99.45 433.6 99.45 442.45 99.45 451.31 99.45 460.17 99.45 469.02 99.45 477.87 99.45 486.72 99.45 495.57 99.45 504.43 99.45 513.28 99.45 522.13 99.45 530.98 99.45 539.83 99.45 548.68 99.45 557.55 99.45 557.55 108.3 566.4 108.3 575.25 108.3 584.1 108.3 592.96 108.3 592.96 117.15 601.81 117.15 610.66 117.15 619.51 117.15 628.36 117.15 628.36 126.01 637.21 126.01 646.07 126.01 654.92 126.01 663.77 126.01 663.77 134.87 672.63 134.87 681.48 134.87 690.34 134.87 690.34 143.72 699.19 143.72 708.04 143.72 708.04 152.57 716.89 152.57 725.74 152.57 734.6 152.57 734.6 161.42 743.45 161.42 743.45 170.27 752.3 170.27 761.15 170.27 761.15 179.13 770 179.13 778.85 179.13 778.85 187.98 787.72 187.98 796.57 187.98 796.57 196.83 805.42 196.83 805.42 205.68 814.27 205.68 814.27 214.53 823.12 214.53 823.12 223.38 831.98 223.38 831.98 232.24 840.83 232.24 840.83 241.1 849.68 241.1 849.68 249.95 858.53 249.95 858.53 258.8 867.38 258.8 867.38 267.65 876.23 267.65 876.23 276.51 885.09 276.51 885.09 285.36 893.95 285.36 893.95 294.21 902.8 294.21 902.8 303.06 911.65 303.06 911.65 311.91 920.5 311.91 920.5 320.76 920.5 329.62 929.36 329.62 929.36 338.47 938.21 338.47 938.21 347.33 946.91 347.33 946.91 347.4 946.91 356.25 955.75 356.25 955.75 365.1 955.75 373.95 964.6 373.95 964.6 382.8 964.6 391.65 964.6 400.5 973.46 400.5 973.46 391.65 973.46 382.8"/><polygon class="cls-12" points="964.6 382.8 964.6 373.95 955.75 373.95 955.75 365.1 955.75 356.25 946.91 356.25 946.91 347.4 946.91 347.33 938.21 347.33 938.21 338.47 929.36 338.47 929.36 329.62 920.5 329.62 920.5 320.76 920.5 311.91 911.65 311.91 911.65 303.06 902.8 303.06 902.8 294.21 893.95 294.21 893.95 285.36 885.09 285.36 885.09 276.51 876.23 276.51 876.23 267.65 867.38 267.65 867.38 258.8 858.53 258.8 858.53 249.95 849.68 249.95 849.68 241.1 840.83 241.1 840.83 232.24 831.98 232.24 831.98 223.38 823.12 223.38 823.12 214.53 814.27 214.53 814.27 205.68 805.42 205.68 805.42 196.83 796.57 196.83 796.57 187.98 787.72 187.98 778.85 187.98 778.85 179.13 770 179.13 761.15 179.13 761.15 170.27 752.3 170.27 743.45 170.27 743.45 161.42 734.6 161.42 734.6 152.57 725.74 152.57 716.89 152.57 708.04 152.57 708.04 143.72 699.19 143.72 690.34 143.72 690.34 134.87 681.48 134.87 672.63 134.87 663.77 134.87 663.77 126.01 654.92 126.01 646.07 126.01 637.21 126.01 628.36 126.01 628.36 117.15 619.51 117.15 610.66 117.15 601.81 117.15 592.96 117.15 592.96 108.3 584.1 108.3 575.25 108.3 566.4 108.3 557.55 108.3 557.55 99.45 548.68 99.45 539.83 99.45 530.98 99.45 522.13 99.45 513.28 99.45 504.43 99.45 495.57 99.45 486.72 99.45 477.87 99.45 469.02 99.45 460.17 99.45 451.31 99.45 442.45 99.45 433.6 99.45 424.75 99.45 424.75 108.3 415.9 108.3 407.05 108.3 398.19 108.3 389.34 108.3 389.34 117.15 380.49 117.15 371.64 117.15 362.79 117.15 353.93 117.15 353.93 126.01 345.08 126.01 336.23 126.01 327.37 126.01 327.37 134.87 318.52 134.87 309.66 134.87 300.81 134.87 300.81 143.72 291.96 143.72 283.11 143.72 283.11 152.57 274.26 152.57 265.4 152.57 256.55 152.57 256.55 161.42 247.7 161.42 247.7 170.27 238.85 170.27 230 170.27 230 179.13 221.15 179.13 212.28 179.13 212.28 187.98 203.43 187.98 203.43 196.83 194.58 196.83 185.73 196.83 185.73 205.68 176.88 205.68 176.88 214.53 168.03 214.53 168.03 223.38 159.17 223.38 159.17 232.24 150.32 232.24 150.32 241.1 141.47 241.1 141.47 249.95 132.62 249.95 132.62 258.8 123.77 258.8 123.77 267.65 114.91 267.65 114.91 276.51 106.05 276.51 106.05 285.36 97.2 285.36 97.2 294.21 88.35 294.21 88.35 303.06 88.35 311.91 79.5 311.91 79.5 320.76 70.64 320.76 70.64 329.62 61.79 329.62 61.79 338.47 61.79 347.33 53.09 347.33 53.09 347.4 53.09 356.25 44.25 356.25 44.25 365.1 44.25 373.95 35.4 373.95 35.4 382.8 35.4 391.65 35.4 400.5 44.25 400.5 44.25 391.65 44.25 382.8 53.09 382.8 53.09 373.95 53.09 373.89 53.09 365.1 53.09 365.04 61.79 365.04 61.79 356.18 70.64 356.18 70.64 347.33 70.64 338.47 79.5 338.47 79.5 329.62 88.35 329.62 88.35 320.76 97.2 320.76 97.2 311.91 97.2 303.06 106.05 303.06 106.05 294.21 114.91 294.21 114.91 285.36 123.77 285.36 123.77 276.51 132.62 276.51 132.62 267.65 141.47 267.65 141.47 258.8 150.32 258.8 150.32 249.95 159.17 249.95 159.17 241.1 168.03 241.1 168.03 232.24 176.88 232.24 176.88 223.38 185.73 223.38 185.73 214.53 194.58 214.53 194.58 205.68 203.43 205.68 212.28 205.68 212.28 196.83 221.15 196.83 221.15 187.98 230 187.98 238.85 187.98 238.85 179.13 247.7 179.13 256.55 179.13 256.55 170.27 265.4 170.27 265.4 161.42 274.26 161.42 283.11 161.42 291.96 161.42 291.96 152.57 300.81 152.57 309.66 152.57 309.66 143.72 318.52 143.72 327.37 143.72 336.23 143.72 336.23 134.87 345.08 134.87 353.93 134.87 362.79 134.87 362.79 126.01 371.64 126.01 380.49 126.01 389.34 126.01 398.19 126.01 398.19 117.15 407.05 117.15 415.9 117.15 424.75 117.15 433.6 117.15 433.6 108.3 442.45 108.3 451.31 108.3 460.17 108.3 469.02 108.3 477.87 108.3 486.72 108.3 495.57 108.3 504.43 108.3 513.28 108.3 522.13 108.3 530.98 108.3 539.83 108.3 548.68 108.3 548.68 117.15 557.55 117.15 566.4 117.15 575.25 117.15 584.1 117.15 584.1 126.01 592.96 126.01 601.81 126.01 610.66 126.01 619.51 126.01 619.51 134.87 628.36 134.87 637.21 134.87 646.07 134.87 654.92 134.87 654.92 143.72 663.77 143.72 672.63 143.72 681.48 143.72 681.48 152.57 690.34 152.57 699.19 152.57 699.19 161.42 708.04 161.42 716.89 161.42 725.74 161.42 725.74 170.27 734.6 170.27 734.6 179.13 743.45 179.13 752.3 179.13 752.3 187.98 761.15 187.98 770 187.98 770 196.83 778.85 196.83 787.72 196.83 787.72 205.68 796.57 205.68 796.57 214.53 805.42 214.53 805.42 223.38 814.27 223.38 814.27 232.24 823.12 232.24 823.12 241.1 831.98 241.1 831.98 249.95 840.83 249.95 840.83 258.8 849.68 258.8 849.68 267.65 858.53 267.65 858.53 276.51 867.38 276.51 867.38 285.36 876.23 285.36 876.23 294.21 885.09 294.21 885.09 303.06 893.95 303.06 893.95 311.91 902.8 311.91 902.8 320.76 911.65 320.76 911.65 329.62 911.65 338.47 920.5 338.47 920.5 347.33 929.36 347.33 929.36 356.18 938.21 356.18 938.21 365.04 946.91 365.04 946.91 365.1 946.91 373.89 946.91 373.95 946.91 382.8 955.75 382.8 955.75 391.65 955.75 400.5 964.6 400.5 964.6 391.65 964.6 382.8"/><polygon class="cls-4" points="955.75 382.8 946.91 382.8 946.91 373.95 938.05 373.95 938.05 382.8 938.05 391.65 946.91 391.65 946.91 400.44 946.91 400.5 955.75 400.5 955.75 391.65 955.75 382.8"/><polygon class="cls-4" points="61.95 391.65 61.95 382.8 61.95 373.95 53.09 373.95 53.09 382.8 44.25 382.8 44.25 391.65 44.25 400.5 53.09 400.5 53.09 400.44 53.09 391.65 61.95 391.65"/></svg>