<svg id="Layer_1" data-name="Layer 1" xmlns="http://www.w3.org/2000/svg" viewBox="0 0 800 800"><defs><style>.cls-1{fill:#534741;}.cls-2{fill:#827670;}.cls-3{fill:#42210b;}.cls-4{fill:#c69c6d;}.cls-5{fill:#603813;}.cls-6{fill:#c7b299;}.cls-7{fill:#e2cdb5;}.cls-8{fill:#a67c52;}</style></defs><title>asteroid-small</title><rect class="cls-1" x="756.91" y="456.31" width="37.54" height="37.51"/><polygon class="cls-2" points="756.91 381.23 756.91 418.77 756.91 456.31 794.45 456.31 794.45 418.77 794.45 381.23 756.91 381.23"/><rect class="cls-1" x="719.38" y="493.82" width="37.54" height="37.54"/><rect class="cls-3" x="719.38" y="456.31" width="37.54" height="37.51"/><rect class="cls-2" x="719.38" y="343.72" width="37.54" height="37.51"/><rect class="cls-1" x="681.86" y="531.36" width="37.51" height="37.51"/><path class="cls-3" d="M681.86,493.82V456.31h37.52V418.77h-75V381.23H606.79V343.72H569.27V306.18h-75V268.64H419.15v37.54h37.53v75.05H419.15v37.54H381.63v37.54H269V418.77H231.5V306.18H156.45v37.54H118.91v37.51h-75v75.08H81.4v37.51h75v75.05H194v37.54H306.56V644h75.07v37.51H569.27V644h37.52V606.41h37.54V568.87h37.53V531.36h37.52V493.82ZM231.5,568.87V531.36H269v37.51Zm375.29-37.51v37.51H569.27v37.54H531.74V644H456.68V606.41H419.15V456.31h37.53V418.77h37.54V381.23h75v37.54h37.52v37.54h37.54v75.05Z"/><rect class="cls-4" x="681.86" y="456.31" width="37.51" height="37.51"/><polygon class="cls-2" points="681.86 343.72 719.38 343.72 719.38 306.18 719.38 268.64 681.86 268.64 681.86 306.18 681.86 343.72"/><rect class="cls-1" x="644.33" y="568.87" width="37.54" height="37.54"/><rect class="cls-5" x="644.33" y="381.23" width="37.54" height="37.54"/><rect class="cls-5" x="644.33" y="306.18" width="37.54" height="37.54"/><rect class="cls-2" x="644.33" y="231.13" width="37.54" height="37.51"/><rect class="cls-1" x="606.79" y="606.41" width="37.54" height="37.54"/><rect x="606.79" y="493.82" width="37.54" height="37.54"/><rect class="cls-6" x="606.79" y="456.31" width="37.54" height="37.51"/><polygon class="cls-2" points="606.79 231.13 644.33 231.13 644.33 193.59 644.33 156.08 606.79 156.08 606.79 193.59 606.79 231.13"/><rect class="cls-1" x="569.27" y="643.95" width="37.51" height="37.51"/><rect x="569.27" y="531.36" width="37.51" height="37.51"/><rect class="cls-5" x="569.27" y="493.82" width="37.51" height="37.54"/><rect class="cls-7" x="569.27" y="418.77" width="37.51" height="37.54"/><rect class="cls-5" x="569.27" y="268.64" width="37.51" height="37.54"/><polygon class="cls-5" points="531.74 531.36 494.22 531.36 494.22 493.82 456.68 493.82 456.68 531.36 456.68 568.87 494.22 568.87 531.74 568.87 569.27 568.87 569.27 531.36 531.74 531.36"/><polygon class="cls-7" points="569.27 418.77 569.27 381.23 531.74 381.23 494.22 381.23 494.22 418.77 531.74 418.77 569.27 418.77"/><rect class="cls-5" x="531.74" y="193.59" width="37.54" height="37.54"/><polygon class="cls-1" points="494.22 681.46 456.68 681.46 419.15 681.46 381.63 681.46 381.63 719 419.15 719 456.68 719 494.22 719 531.74 719 569.27 719 569.27 681.46 531.74 681.46 494.22 681.46"/><polygon points="494.22 568.87 456.68 568.87 456.68 531.36 419.15 531.36 419.15 568.87 419.15 606.41 456.68 606.41 456.68 643.95 494.22 643.95 531.74 643.95 531.74 606.41 569.27 606.41 569.27 568.87 531.74 568.87 494.22 568.87"/><polygon class="cls-2" points="531.74 156.08 569.27 156.08 606.79 156.08 606.79 118.54 569.27 118.54 531.74 118.54 494.22 118.54 494.22 156.08 531.74 156.08"/><polygon class="cls-8" points="494.22 493.82 494.22 531.36 531.74 531.36 569.27 531.36 569.27 493.82 606.79 493.82 606.79 456.31 569.27 456.31 569.27 418.77 531.74 418.77 494.22 418.77 494.22 456.31 456.68 456.31 456.68 493.82 494.22 493.82"/><rect class="cls-7" x="456.68" y="418.77" width="37.54" height="37.54"/><rect class="cls-6" x="419.15" y="493.82" width="37.54" height="37.54"/><rect class="cls-7" x="419.15" y="456.31" width="37.54" height="37.51"/><polygon points="419.15 381.23 456.68 381.23 456.68 343.72 456.68 306.18 419.15 306.18 419.15 343.72 419.15 381.23"/><rect class="cls-5" x="419.15" y="193.59" width="37.54" height="37.54"/><rect x="381.63" y="381.23" width="37.51" height="37.54"/><rect class="cls-5" x="381.63" y="343.72" width="37.51" height="37.51"/><rect class="cls-6" x="381.63" y="268.64" width="37.51" height="37.54"/><polygon class="cls-1" points="344.09 643.95 306.56 643.95 306.56 681.46 344.09 681.46 381.63 681.46 381.63 643.95 344.09 643.95"/><rect class="cls-5" x="344.09" y="381.23" width="37.54" height="37.54"/><polygon class="cls-8" points="381.63 268.64 344.09 268.64 306.56 268.64 269.04 268.64 269.04 306.18 269.04 343.72 269.04 381.23 306.56 381.23 306.56 343.72 344.09 343.72 344.09 381.23 381.63 381.23 381.63 343.72 419.15 343.72 419.15 306.18 381.63 306.18 381.63 268.64"/><polygon points="344.09 381.23 306.56 381.23 306.56 418.77 269.04 418.77 269.04 456.31 306.56 456.31 344.09 456.31 381.63 456.31 381.63 418.77 344.09 418.77 344.09 381.23"/><rect class="cls-5" x="306.56" y="343.72" width="37.54" height="37.51"/><polygon class="cls-7" points="344.09 268.64 381.63 268.64 381.63 231.13 344.09 231.13 306.56 231.13 269.04 231.13 269.04 268.64 306.56 268.64 344.09 268.64"/><rect class="cls-5" x="306.56" y="118.54" width="37.54" height="37.54"/><polygon class="cls-2" points="344.09 118.54 381.63 118.54 419.15 118.54 456.68 118.54 494.22 118.54 494.22 81 456.68 81 419.15 81 381.63 81 344.09 81 306.56 81 269.04 81 269.04 118.54 306.56 118.54 344.09 118.54"/><polygon class="cls-1" points="269.04 606.41 231.5 606.41 193.99 606.41 193.99 643.95 231.5 643.95 269.04 643.95 306.56 643.95 306.56 606.41 269.04 606.41"/><rect class="cls-5" x="269.04" y="381.23" width="37.51" height="37.54"/><rect class="cls-4" x="231.5" y="531.36" width="37.54" height="37.51"/><polygon points="269.04 343.72 231.5 343.72 231.5 381.23 231.5 418.77 269.04 418.77 269.04 381.23 269.04 343.72"/><rect class="cls-6" x="231.5" y="306.18" width="37.54" height="37.54"/><rect class="cls-7" x="231.5" y="268.64" width="37.54" height="37.54"/><polygon class="cls-2" points="269.04 156.08 269.04 118.54 231.5 118.54 193.99 118.54 193.99 156.08 231.5 156.08 269.04 156.08"/><rect class="cls-1" x="156.45" y="568.87" width="37.54" height="37.54"/><rect class="cls-5" x="156.45" y="231.13" width="37.54" height="37.51"/><rect class="cls-2" x="156.45" y="156.08" width="37.54" height="37.51"/><polygon class="cls-1" points="156.45 493.82 118.92 493.82 81.4 493.82 81.4 456.31 43.86 456.31 43.86 493.82 43.86 531.36 81.4 531.36 118.92 531.36 118.92 568.87 156.45 568.87 156.45 531.36 156.45 493.82"/><rect class="cls-2" x="118.91" y="193.59" width="37.54" height="37.54"/><rect class="cls-4" x="81.4" y="268.64" width="37.51" height="37.54"/><rect class="cls-2" x="81.4" y="231.13" width="37.51" height="37.51"/><path class="cls-8" d="M43.86,381.23h75.05V343.72h37.54V306.18H231.5V268.64H269V231.13H381.63v37.51H494.22v37.54h75V268.64h37.52v37.54H569.27v37.54h37.52v37.51h75.07v37.54h37.52v37.54h37.53V381.23H719.38V343.72h-75V306.18h37.53V268.64H644.33V231.13H606.79v-75H494.22V118.54H344.09v37.54H306.56V118.54H269v37.54H194v37.51H156.45v37.54H194v37.51H156.45V231.13H118.91v75.05h-75v75.05Zm375.29-150.1V193.59h37.53v37.54Zm150.12-37.54v37.54H531.74V193.59Z"/><rect class="cls-2" x="43.86" y="268.64" width="37.54" height="37.54"/><polygon class="cls-1" points="43.86 381.23 43.86 343.72 6.33 343.72 6.33 381.23 6.33 418.77 6.33 456.31 43.86 456.31 43.86 418.77 43.86 381.23"/><rect class="cls-2" x="6.33" y="306.18" width="37.54" height="37.54"/></svg>