<svg id="Layer_1" data-name="Layer 1" xmlns="http://www.w3.org/2000/svg" viewBox="0 0 1920 1280"><defs><style>.cls-1{fill:#4c4c4c;}.cls-2{fill:#b7b7b7;}.cls-3{fill:#fff;}</style></defs><title>space</title><rect width="1920" height="1280"/><rect class="cls-1" x="873.89" y="597.84" width="6.38" height="2.56"/><rect class="cls-1" x="975.95" y="74.09" width="6.38" height="2.56"/><rect class="cls-1" x="1696.74" y="324.47" width="6.38" height="2.56"/><rect class="cls-1" x="1773.29" y="296.37" width="6.38" height="2.55"/><rect class="cls-1" x="1849.83" y="406.23" width="6.38" height="2.55"/><rect class="cls-1" x="1817.94" y="590.18" width="6.38" height="2.55"/><rect class="cls-1" x="1849.83" y="835.45" width="6.38" height="2.55"/><rect class="cls-1" x="1447.97" y="1024.51" width="6.38" height="2.56"/><rect class="cls-1" x="1620.2" y="1180.36" width="6.38" height="2.55"/><rect class="cls-1" x="1792.43" y="996.41" width="6.37" height="2.55"/><rect class="cls-1" x="484.78" y="166.07" width="6.38" height="2.55"/><rect class="cls-1" x="114.82" y="426.67" width="6.38" height="2.55"/><rect class="cls-1" x="89.3" y="625.95" width="6.38" height="2.55"/><rect class="cls-1" x="344.45" y="707.7" width="6.38" height="2.56"/><rect class="cls-1" x="229.63" y="968.3" width="6.38" height="2.56"/><rect class="cls-1" x="848.37" y="904.43" width="6.38" height="2.56"/><rect class="cls-1" x="1020.6" y="1172.69" width="6.38" height="2.56"/><rect class="cls-1" x="650.63" y="1144.59" width="6.38" height="2.56"/><rect class="cls-1" x="676.15" y="516.09" width="6.37" height="2.55"/><rect class="cls-1" x="701.66" y="260.6" width="6.38" height="2.55"/><rect class="cls-1" x="1428.84" y="112.42" width="6.38" height="2.55"/><rect class="cls-2" x="229.63" y="94.53" width="6.38" height="2.56"/><rect class="cls-2" x="31.89" y="311.7" width="6.38" height="2.55"/><rect class="cls-2" x="382.72" y="825.23" width="6.38" height="2.55"/><rect class="cls-2" x="184.98" y="746.03" width="6.38" height="2.55"/><rect class="cls-2" x="535.81" y="1011.74" width="6.38" height="2.55"/><rect class="cls-2" x="459.27" y="1126.71" width="6.38" height="2.55"/><rect class="cls-2" x="1129.04" y="1029.62" width="6.38" height="2.56"/><rect class="cls-2" x="1428.84" y="940.2" width="6.38" height="2.55"/><rect class="cls-2" x="1352.29" y="717.92" width="6.38" height="2.56"/><rect class="cls-2" x="1186.45" y="817.56" width="6.37" height="2.56"/><rect class="cls-2" x="1664.85" y="684.71" width="6.38" height="2.56"/><rect class="cls-2" x="1856.21" y="674.49" width="6.38" height="2.56"/><rect class="cls-2" x="1843.46" y="270.82" width="6.37" height="2.55"/><rect class="cls-2" x="1754.15" y="191.62" width="6.38" height="2.55"/><rect class="cls-2" x="1811.56" y="114.97" width="6.38" height="2.55"/><rect class="cls-2" x="1473.49" y="79.2" width="6.38" height="2.56"/><rect class="cls-2" x="1058.87" y="401.12" width="6.38" height="2.55"/><rect class="cls-2" x="1046.11" y="457.33" width="6.38" height="2.55"/><rect class="cls-2" x="1231.1" y="628.5" width="6.38" height="2.56"/><rect class="cls-2" x="472.03" y="677.05" width="6.38" height="2.55"/><rect class="cls-2" x="599.6" y="559.52" width="6.38" height="2.56"/><rect class="cls-2" x="720.8" y="513.53" width="6.38" height="2.56"/><rect class="cls-2" x="727.18" y="125.19" width="6.37" height="2.55"/><rect class="cls-2" x="503.92" y="342.36" width="6.38" height="2.55"/><rect class="cls-3" x="1645.71" y="602.95" width="6.38" height="2.56"/><rect class="cls-3" x="1518.14" y="615.73" width="6.38" height="2.55"/><rect class="cls-3" x="1569.17" y="332.14" width="6.38" height="2.55"/><rect class="cls-3" x="1435.22" y="393.45" width="6.37" height="2.56"/><rect class="cls-3" x="1581.93" y="439.44" width="6.38" height="2.56"/><rect class="cls-3" x="1530.9" y="457.33" width="6.38" height="2.55"/><rect class="cls-3" x="1486.25" y="477.76" width="6.37" height="2.56"/><rect class="cls-3" x="497.54" y="237.6" width="6.38" height="2.56"/><rect class="cls-3" x="440.13" y="247.82" width="6.38" height="2.56"/><rect class="cls-3" x="427.38" y="355.13" width="6.37" height="2.55"/><rect class="cls-3" x="401.86" y="375.57" width="6.38" height="2.55"/><rect class="cls-3" x="414.62" y="304.03" width="6.38" height="2.56"/><rect class="cls-3" x="357.21" y="352.57" width="6.38" height="2.56"/><rect class="cls-3" x="140.33" y="416.45" width="6.38" height="2.55"/><rect class="cls-3" x="236.01" y="357.68" width="6.38" height="2.56"/><rect class="cls-3" x="184.98" y="311.7" width="6.38" height="2.55"/><rect class="cls-3" x="153.09" y="355.13" width="6.38" height="2.55"/><rect class="cls-3" x="299.8" y="173.73" width="6.38" height="2.56"/><rect class="cls-3" x="267.91" y="214.61" width="6.38" height="2.56"/><rect class="cls-3" x="242.39" y="255.49" width="6.38" height="2.55"/><rect class="cls-3" x="165.85" y="114.97" width="6.38" height="2.55"/><rect class="cls-3" x="440.13" y="107.31" width="6.38" height="2.55"/><rect class="cls-3" x="822.86" y="329.58" width="6.38" height="2.56"/><rect class="cls-3" x="886.64" y="373.01" width="6.38" height="2.56"/><rect class="cls-3" x="1122.66" y="664.27" width="6.38" height="2.56"/><rect class="cls-3" x="1211.96" y="531.42" width="6.38" height="2.55"/><rect class="cls-3" x="873.89" y="679.6" width="6.38" height="2.56"/><rect class="cls-3" x="625.12" y="628.5" width="6.38" height="2.56"/><rect class="cls-3" x="644.25" y="623.39" width="6.38" height="2.56"/><rect class="cls-3" x="574.09" y="631.06" width="6.38" height="2.55"/><rect class="cls-3" x="963.19" y="559.52" width="6.38" height="2.56"/><rect class="cls-3" x="637.87" y="362.79" width="6.38" height="2.56"/><rect class="cls-3" x="318.94" y="572.3" width="6.38" height="2.55"/><rect class="cls-3" x="350.83" y="516.09" width="6.38" height="2.55"/><rect class="cls-3" x="248.77" y="615.73" width="6.38" height="2.55"/><rect class="cls-3" x="165.85" y="917.21" width="6.38" height="2.55"/><rect class="cls-3" x="191.36" y="904.43" width="6.38" height="2.56"/><rect class="cls-3" x="261.53" y="1073.05" width="6.38" height="2.56"/><rect class="cls-3" x="389.1" y="1096.05" width="6.38" height="2.55"/><rect class="cls-3" x="197.74" y="1134.37" width="6.38" height="2.56"/><rect class="cls-3" x="395.48" y="894.21" width="6.38" height="2.56"/><rect class="cls-3" x="1403.32" y="871.22" width="6.38" height="2.55"/><rect class="cls-3" x="1505.38" y="761.36" width="6.38" height="2.55"/><rect class="cls-3" x="1237.48" y="817.56" width="6.37" height="2.56"/><rect class="cls-3" x="1441.59" y="1044.95" width="6.38" height="2.55"/><rect class="cls-3" x="1620.2" y="1213.57" width="6.38" height="2.56"/><rect class="cls-3" x="1837.08" y="1157.37" width="6.38" height="2.55"/><rect class="cls-3" x="1671.23" y="901.88" width="6.38" height="2.55"/><rect class="cls-3" x="1817.94" y="429.22" width="6.38" height="2.56"/><rect class="cls-3" x="1786.05" y="122.63" width="6.38" height="2.56"/><rect class="cls-3" x="1109.9" y="250.38" width="6.38" height="2.55"/><rect class="cls-3" x="937.67" y="252.93" width="6.38" height="2.56"/><rect class="cls-3" x="956.81" y="137.96" width="6.38" height="2.56"/><rect class="cls-3" x="784.58" y="122.63" width="6.38" height="2.56"/><rect class="cls-3" x="969.57" y="84.31" width="6.38" height="2.56"/><rect class="cls-3" x="1103.52" y="204.39" width="6.38" height="2.56"/><rect class="cls-3" x="1384.19" y="201.84" width="6.37" height="2.55"/><rect class="cls-3" x="1186.45" y="112.42" width="6.37" height="2.55"/><rect class="cls-3" x="1556.41" y="232.5" width="6.38" height="2.55"/><rect class="cls-3" x="1377.81" y="554.41" width="6.38" height="2.56"/><rect class="cls-3" x="1237.48" y="408.78" width="6.37" height="2.56"/><rect class="cls-3" x="816.48" y="715.37" width="6.38" height="2.55"/><rect class="cls-3" x="503.92" y="1106.27" width="6.38" height="2.55"/><rect class="cls-3" x="1141.79" y="1175.25" width="6.38" height="2.55"/><rect class="cls-3" x="1562.79" y="1044.95" width="6.38" height="2.55"/><rect class="cls-3" x="1664.85" y="674.49" width="6.38" height="2.56"/><rect class="cls-3" x="1058.87" y="904.43" width="6.38" height="2.56"/><rect class="cls-3" x="1186.45" y="416.45" width="6.37" height="2.55"/><rect class="cls-3" x="937.67" y="168.62" width="6.38" height="2.56"/><rect class="cls-3" x="395.48" y="539.08" width="6.38" height="2.56"/><rect class="cls-3" x="89.3" y="786.91" width="6.38" height="2.55"/><rect class="cls-3" x="280.66" y="636.17" width="6.38" height="2.55"/><rect class="cls-3" x="344.45" y="217.17" width="6.38" height="2.55"/><rect class="cls-3" x="599.6" y="232.5" width="6.38" height="2.55"/><rect class="cls-3" x="523.06" y="426.67" width="6.38" height="2.55"/><rect class="cls-3" x="822.86" y="505.87" width="6.38" height="2.55"/><rect class="cls-3" x="542.19" y="776.69" width="6.38" height="2.55"/><rect class="cls-3" x="255.15" y="411.34" width="6.38" height="2.55"/></svg>